SplineFontDB: 3.0
FontName: Albane
FullName: Albane
FamilyName: Albane
Weight: Medium
Copyright: Created by Guillaume Ayoub with FontForge 2.0 (http://fontforge.sf.net)
UComments: "2014-6-9: Created."
Version: 001.000
ItalicAngle: 0
UnderlinePosition: -100
UnderlineWidth: 50
Ascent: 720
Descent: 280
InvalidEm: 0
LayerCount: 2
Layer: 0 0 "Arri+AOgA-re" 1
Layer: 1 0 "Avant" 0
XUID: [1021 779 1303216649 11122949]
FSType: 0
OS2Version: 0
OS2_WeightWidthSlopeOnly: 0
OS2_UseTypoMetrics: 1
CreationTime: 1402326609
ModificationTime: 1428349856
OS2TypoAscent: 0
OS2TypoAOffset: 1
OS2TypoDescent: 0
OS2TypoDOffset: 1
OS2TypoLinegap: 90
OS2WinAscent: 0
OS2WinAOffset: 1
OS2WinDescent: 0
OS2WinDOffset: 1
HheadAscent: 0
HheadAOffset: 1
HheadDescent: 0
HheadDOffset: 1
OS2CapHeight: 0
OS2XHeight: 0
OS2Vendor: 'PfEd'
MarkAttachClasses: 1
DEI: 91125
Encoding: UnicodeBmp
UnicodeInterp: none
NameList: Adobe Glyph List
DisplaySize: -36
AntiAlias: 1
FitToEm: 1
WinInfo: 25 25 10
BeginPrivate: 1
BlueValues 49 [-270 -260 -10 0 420 430 480 490 650 660 695 705]
EndPrivate
BeginChars: 65536 202

StartChar: n
Encoding: 110 110 0
Width: 536
VWidth: 0
Flags: W
HStem: -4 30<191.917 237.182 459.917 505.182> 364 28<42 88.5454> 365 65<250.538 352.087>
VStem: 100 86<33.9572 325.188 351 357.546> 368 86<33.9572 351.09>
LayerCount: 2
Back
Fore
SplineSet
186 351 m 1xb8
 238 402 260 430 342 430 c 3
 412 430 454 373 454 286 c 10
 454 52 l 18
 454 32 496 32 502 26 c 1
 505 23 506 22 506 -4 c 1
 482 -1 453.576 0 420 0 c 27
 374.344 0 333 -1 303 -4 c 1
 303 9 305 16 309 20 c 1
 322 33 368 28 368 52 c 10
 368 286 l 18
 368 319 353 365 316 365 c 3xb8
 261 365 244 350 186 312 c 1
 186 52 l 2
 186 32 228 32 234 26 c 0
 237 23 238 22 238 -4 c 1
 214 -1 193 0 152 0 c 3
 111 0 65 -1 35 -4 c 1
 35 9 38 16 42 20 c 0
 55 33 100 28 100 52 c 2
 100 315 l 2
 100 355.01171875 77 364 42 364 c 9
 42 392 l 17xd8
 73 392 157 422 192 451 c 1
 188 432 186 410 186 365 c 2
 186 351 l 1xb8
EndSplineSet
EndChar

StartChar: dotlessi
Encoding: 305 305 1
Width: 268
VWidth: 0
Flags: W
HStem: -4 30<191.917 237.182> 359 28<42 88.6137>
VStem: 100 86<33.9572 352.78>
LayerCount: 2
Back
Fore
SplineSet
100 309 m 18
 100 351.01171875 77 359 42 359 c 9
 42 387 l 17
 73 387 157 417 192 446 c 1
 188 427 186 404 186 360 c 10
 186 52 l 18
 186 32 228 32 234 26 c 1
 237 23 238 22 238 -4 c 1
 214 -1 185 0 152 0 c 27
 106 0 65 -1 35 -4 c 1
 35 9 38 16 42 20 c 1
 55 33 100 28 100 52 c 10
 100 309 l 18
EndSplineSet
EndChar

StartChar: uni0237
Encoding: 567 567 3
Width: 276
VWidth: 0
Flags: W
HStem: 358 38<52 108.554>
VStem: 110 86<-64.152 351>
LayerCount: 2
Back
Fore
SplineSet
196 46 m 18
 196 -116 45 -266 45 -266 c 17
 40 -272 29 -271 19 -260 c 9
 -16 -221 l 21
 -23 -212 -22 -203 -10 -195 c 5
 42 -160 114 -109 114 -61 c 3
 114 -35 110 94 110 189 c 10
 110 351 l 25
 52 358 l 25
 52 396 l 17
 108 396 162 410 202 455 c 1
 198 436 196 416 196 370 c 9
 196 46 l 18
EndSplineSet
EndChar

StartChar: period
Encoding: 46 46 4
Width: 260
VWidth: 0
Flags: W
HStem: -13 112<81.6577 168.342>
VStem: 70 110<-1.78199 87.782>
LayerCount: 2
Back
Fore
SplineSet
125 99 m 31
 155.612 99 180 73.6123 180 43 c 31
 180 12.3877 155.612 -13 125 -13 c 31
 94.3877 -13 70 12.3877 70 43 c 31
 70 73.6123 94.3877 99 125 99 c 31
EndSplineSet
EndChar

StartChar: h
Encoding: 104 104 6
Width: 541
VWidth: 0
Flags: W
HStem: -4 30<191.917 237.182 464.917 510.182> 365 65<252.534 357.087> 614 28<42 88.6137> 681 20G<174.5 190>
VStem: 100 86<33.9572 326.145 352 608.472> 373 86<33.9572 349.298>
LayerCount: 2
Back
Fore
SplineSet
100 565 m 18
 100 608.01171875 77 614 42 614 c 9
 42 642 l 17
 73 642 157 672 192 701 c 1
 188 682 186 659 186 615 c 2
 186 352 l 1
 237 403 265 430 347 430 c 3
 417 430 459 374 459 287 c 10
 459 52 l 18
 459 32 501 32 507 26 c 1
 510 23 511 22 511 -4 c 1
 487 -1 458.576171875 0 425 0 c 27
 379.34375 0 338 -1 308 -4 c 1
 308 9 311 16 315 20 c 1
 328 33 373 28 373 52 c 10
 373 287 l 18
 373 320 358 365 321 365 c 3
 266 365 243 351 186 313 c 9
 186 52 l 18
 186 32 228 32 234 26 c 1
 237 23 238 22 238 -4 c 1
 214 -1 185.576171875 0 152 0 c 27
 106.34375 0 65 -1 35 -4 c 1
 35 9 37 16 41 20 c 1
 54 33 100 28 100 52 c 10
 100 565 l 18
EndSplineSet
EndChar

StartChar: m
Encoding: 109 109 7
Width: 793
VWidth: 0
Flags: W
HStem: -4 30<191.917 237.182 453.917 499.182 716.917 762.182> 364 28<42 88.5454> 365 65<247.769 347.391 514.495 609.087>
VStem: 100 86<33.9572 326.689 351 357.546> 363 85<33.9572 313> 625 86<33.9572 351.09>
CounterMasks: 1 1c
LayerCount: 2
Back
Fore
SplineSet
100 315 m 6xbc
 100 355.01171875 77 364 42 364 c 13
 42 392 l 21xdc
 73 392 157 422 192 451 c 5
 188 432 186 410 186 365 c 6
 186 351 l 5
 237 402 255 430 337 430 c 3
 393 430 429 406 443 346 c 1
 492 394 521 430 599 430 c 3
 669 430 711 373 711 286 c 2
 711 52 l 2
 711 32 753 32 759 26 c 0
 762 23 763 22 763 -4 c 1
 739 -1 718 0 677 0 c 3
 636 0 590 -1 560 -4 c 1
 560 9 563 16 567 20 c 0
 580 33 625 28 625 52 c 2
 625 286 l 2
 625 319 610 365 573 365 c 3
 518 365 505 350 448 312 c 1
 448 313 l 1
 448 309 448 304 448 299 c 2
 448 52 l 2
 448 32 490 32 496 26 c 0
 499 23 500 22 500 -4 c 1
 476 -1 456 0 415 0 c 3
 374 0 328 -1 298 -4 c 1
 298 9 300 16 304 20 c 0
 317 33 363 28 363 52 c 2
 363 286 l 2
 363 319 348 365 311 365 c 3
 256 365 243 350 186 312 c 5
 186 52 l 6
 186 32 228 32 234 26 c 4
 237 23 238 22 238 -4 c 5
 214 -1 193 0 152 0 c 7
 111 0 65 -1 35 -4 c 5
 35 9 38 16 42 20 c 4
 55 33 100 28 100 52 c 6
 100 315 l 6xbc
EndSplineSet
EndChar

StartChar: l
Encoding: 108 108 8
Width: 268
VWidth: 0
Flags: W
HStem: -4 30<191.917 237.182> 614 28<42 88.5454> 681 20G<174.5 190>
VStem: 100 86<33.9572 607.546>
LayerCount: 2
Back
Fore
SplineSet
186 615 m 2
 186 52 l 18
 186 32 228 32 234 26 c 0
 237 23 238 22 238 -4 c 1
 214 -1 180 0 139 0 c 0
 98 0 65 -1 35 -4 c 1
 35 9 37 16 41 20 c 0
 54 33 100 28 100 52 c 10
 100 565 l 18
 100 605.01171875 77 614 42 614 c 9
 42 642 l 17
 73 642 157 672 192 701 c 1
 188 682 186 660 186 615 c 2
EndSplineSet
EndChar

StartChar: r
Encoding: 114 114 9
Width: 436
VWidth: 0
Flags: W
HStem: -4 30<192.043 237.182> 359 71<260.442 363.5> 364 28<42 88.5454>
VStem: 100 86<33.697 312.488 338 357.543> 342 79<325.7 354.424>
LayerCount: 2
Back
Fore
SplineSet
100 315 m 22xd8
 100 355 77 364 42 364 c 9
 42 392 l 17xb8
 73 392 157 422 192 451 c 1
 188 432 186 410 186 365 c 2
 186 338 l 1
 237 389 262 430 335 430 c 3
 392 430 421 355 421 338 c 3
 421 317 360 299 342 299 c 1
 336 315 341 359 303 359 c 3
 263 359 243 337 186 299 c 9
 186 52 l 17
 186 32 229 31 234 26 c 1
 237 23 238 22 238 -4 c 1
 215 0 185.576 0 152 0 c 27
 106.344 0 65 0 35 -4 c 1
 35 9 38 16 42 20 c 1
 55 33 100 29 100 52 c 9
 100 315 l 22xd8
EndSplineSet
EndChar

StartChar: u
Encoding: 117 117 10
Width: 546
VWidth: 0
Flags: W
HStem: -10 59<199.124 309.069> 24 44<484.353 521> 387 30<30.8175 84.4963 285.818 344.443> 410 20G<157 174 414 436>
VStem: 88 86<76.6922 380.904> 350 86<71.7115 380.36>
LayerCount: 2
Back
Fore
SplineSet
436 430 m 1x1c
 436 87 l 18
 436 65 453 55 475 55 c 3
 489 55 509 62 521 68 c 9
 521 24 l 17x5c
 343 -10 l 1
 346 0 350 13 350 37 c 2
 350 42 l 1
 318 10 272 -10 226 -10 c 3
 140 -10 88 56 88 146 c 10
 88 365 l 18
 88 385 39 382 34 387 c 1
 31 390 30 391 30 417 c 1xac
 53 413 140 430 174 430 c 1x1c
 174 133 l 2
 174 99 198 49 252 49 c 3
 288 49 313 58 350 87 c 9
 350 365 l 18
 350 385 294 382 289 387 c 1
 286 390 285 391 285 417 c 1xac
 308 413 392 430 436 430 c 1x1c
EndSplineSet
EndChar

StartChar: d
Encoding: 100 100 11
Width: 532
VWidth: 0
Flags: W
HStem: -10 39<204.57 298.555> 23 23<465.97 498> 391 39<186.176 308.468> 614 28<289 335.614> 681 20G<421.5 437>
VStem: 35 97<113.561 303.635> 347 86<51.4072 353.375 411 607.855>
LayerCount: 2
Back
Fore
SplineSet
347 565 m 6xbe
 347 606.01171875 324 614 289 614 c 13
 289 642 l 21
 320 642 404 672 439 701 c 5
 435 682 433 659 433 615 c 6
 433 72 l 2
 433 56 442 46 459 46 c 2
 498 46 l 9
 498 23 l 17x7e
 347 -10 l 1
 347 43 l 1
 299 3 261 -10 249 -10 c 3
 114 -10 35 84 35 202 c 3
 35 358 162 430 255 430 c 3
 302 430 324 424 347 411 c 1
 347 565 l 6xbe
347 261 m 2
 347 334 326 391 243 391 c 3
 199 391 132 357 132 228 c 3
 132 127 176 29 262 29 c 3xbe
 309 29 338 62 347 72 c 1
 347 261 l 2
EndSplineSet
EndChar

StartChar: o
Encoding: 111 111 12
Width: 485
VWidth: 0
Flags: W
HStem: -10 39<194.57 308.415> 391 39<176.176 292.907>
VStem: 25 97<113.561 303.635> 363 97<106.322 307.432>
LayerCount: 2
Back
Fore
SplineSet
233 391 m 3
 189 391 122 357 122 228 c 3
 122 127 166 29 252 29 c 3
 303 29 363 70 363 188 c 3
 363 287 328 391 233 391 c 3
25 202 m 3
 25 358 152 430 245 430 c 3
 378 430 460 332 460 214 c 3
 460 67 368 -10 239 -10 c 3
 104 -10 25 84 25 202 c 3
EndSplineSet
EndChar

StartChar: q
Encoding: 113 113 13
Width: 494
VWidth: 0
Flags: W
HStem: -274 30<437.917 483.182> -10 39<204.57 310.042> 391 39<186.176 308.322>
VStem: 35 97<113.561 303.635> 347 85<-235.99 30 43.8727 353.377>
LayerCount: 2
Back
Fore
SplineSet
35 202 m 3
 35 358 162 430 255 430 c 3
 302 430 342 418 367 397 c 1
 439 430 l 1
 435 411 432 381 432 339 c 2
 432 -218 l 2
 432 -238 474 -238 480 -244 c 0
 483 -247 484 -248 484 -274 c 1
 460 -271 426 -270 385 -270 c 0
 344 -270 311 -271 281 -274 c 1
 281 -261 284 -255 288 -251 c 0
 301 -238 347 -242 347 -218 c 2
 347 30 l 1
 314 6 261 -10 249 -10 c 3
 114 -10 35 84 35 202 c 3
347 261 m 2
 347.363 334.006 326 391 243 391 c 3
 199 391 132 357 132 228 c 3
 132 127 176 29 262 29 c 3
 309 29 337 49 346 59 c 1
 347 261 l 2
EndSplineSet
EndChar

StartChar: a
Encoding: 97 97 14
Width: 471
VWidth: 0
Flags: W
HStem: -10 75<336.971 412.911> -10 56<137.732 241.453> 381 49<159.963 270.918>
VStem: 40 84<59.5496 154.736> 53 91<280.095 360.621> 280 86<66.6946 221> 287 79<260.999 364.973>
LayerCount: 2
Back
Fore
SplineSet
124 110 m 3x74
 124 63 154 46 190 46 c 27
 229 46 259 63 280 84 c 9
 280 221 l 17
 231 187 124 187 124 110 c 3x74
366 286 m 10x6a
 366 104 l 18x64
 366 90 369 65 388 65 c 11
 409.958 65 424 74 435 96 c 9
 451 68 l 17
 428 19 401.849 -10 353 -10 c 27
 320.941 -10 287 7 287 39 c 1xa2
 247 11 202 -10 176 -10 c 3
 102 -10 40 24 40 98 c 3
 40 203 196 211 280 260 c 9x74
 282.73 281.45 287 293.377 287 315 c 27
 287 349.011 260 381 230 381 c 3
 159 381 153 353 144 326 c 4
 135 301 130.349609375 274 105 274 c 31
 80.98046875 274 53 282.98046875 53 307 c 31
 53 331.7890625 63 352 79 365 c 4
 96 379 155.994186243 430 242 430 c 7
 338 430 366 396 366 286 c 10x6a
EndSplineSet
EndChar

StartChar: exclam
Encoding: 33 33 16
Width: 270
VWidth: 0
Flags: W
HStem: -13 112<86.6577 173.342> 640 20G<137.271 162.385>
VStem: 75 110<-1.78199 87.782> 85 100<544.1 656.771>
LayerCount: 2
Back
Fore
SplineSet
85 654 m 0xd0
 85 654 124.542 660 150 660 c 27
 174.771 660 185 631.771 185 607 c 27
 185 443.588 167.31 352.02 156 189 c 17
 139 184 138.602 177 126 177 c 27
 121.113 177 118 179 115 183 c 1
 85 654 l 0xd0
EndSplineSet
Refer: 4 46 S 1 0 0 1 5 0 2
EndChar

StartChar: p
Encoding: 112 112 17
Width: 549
VWidth: 0
Flags: W
HStem: -274 30<198.725 255.182> -10 39<231.937 362.869> 364 28<47 93.5454> 391 39<238.709 347.386>
VStem: 105 86<-234.586 46 57.5957 356.409> 417 97<106.322 307.432>
LayerCount: 2
Back
Fore
SplineSet
105 315 m 6xdc
 105 355 82 364 47 364 c 9
 47 392 l 17
 78 392 162 422 197 451 c 1
 193 432 191 409 191 364 c 1xec
 220 403 257 430 300 430 c 3
 433 430 514 332 514 214 c 3
 514 67 423 -10 294 -10 c 3
 256 -10 219 12 191 46 c 5
 191 -218 l 6
 191 -238 246 -238 252 -244 c 0
 255 -247 256 -248 256 -274 c 1
 232 -271 185 -270 144 -270 c 0
 103 -270 70 -271 40 -274 c 1
 40 -261 42 -255 46 -251 c 0
 59 -238 105 -242 105 -218 c 6
 105 315 l 6xdc
191 325 m 1
 191 87 l 1
 209 51 243 29 306 29 c 3
 357 29 417 70 417 188 c 3
 417 287 382 391 287 391 c 3xdc
 245 391 212 365 191 325 c 1
EndSplineSet
EndChar

StartChar: b
Encoding: 98 98 18
Width: 530
VWidth: 0
Flags: W
HStem: -10 39<219.882 342.803> 391 39<203.052 327.407> 617 28<27 73.6137> 684 20G<159.5 175>
VStem: 85 86<72.3594 364.512 398 610.78> 397 98<106.322 307.432>
LayerCount: 2
Back
Fore
SplineSet
171 618 m 2
 171 398 l 1
 199 425 245 430 280 430 c 3
 413 430 495 332 495 214 c 3
 495 67 402 -10 273 -10 c 3
 204 -10 127 11 85 58 c 1
 85 567 l 2
 85 609.01171875 62 617 27 617 c 9
 27 645 l 17
 58 645 142 675 177 704 c 5
 173 685 171 662 171 618 c 2
171 343 m 1
 171 131 l 2
 171 71 227 29 287 29 c 3
 338 29 397 70 397 188 c 3
 397 287 362 391 267 391 c 3
 243 391 196 379 171 343 c 1
EndSplineSet
EndChar

StartChar: e
Encoding: 101 101 19
Width: 444
VWidth: 0
Flags: W
HStem: -10 39<200.928 331.133> 222 43<135 283.846> 235 30<262.154 328> 391 39<184.054 286.876>
VStem: 35 97<112.708 222 265 307.656> 328 86<265 333.155>
LayerCount: 2
Back
Fore
SplineSet
328 265 m 1xbc
 328 331 297 391 236 391 c 3
 197 391 147 364 135 265 c 1xdc
 328 265 l 1xbc
249 430 m 3
 326 430 414 364 414 235 c 1xbc
 132 222 l 1
 132 121 179 29 255 29 c 3
 306 29 354 53 385 93 c 1
 405 81 l 1
 372 20 321 -10 243 -10 c 3
 108 -10 35 72 35 198 c 3
 35 372 156 430 249 430 c 3
EndSplineSet
EndChar

StartChar: c
Encoding: 99 99 20
Width: 345
VWidth: 0
Flags: W
HStem: -10 30<170.294 269.114> 300 30<155.546 240.298>
VStem: 35 75<79.7411 240.189>
LayerCount: 2
Back
Fore
SplineSet
200 300 m 3
 166.366 300 110 274.021 110 175 c 3
 110 97 148.992 20 215 20 c 3
 254 20 286.5 40 310 71 c 9
 330 60 l 17
 304.5 13 265.035 -10 205 -10 c 3
 100.88 -10 35 63.9531 35 155 c 3
 35 275.004 138.5 330 210 330 c 3
 272.508 330 320 297 320 279 c 3
 320 262 308 245 287 245 c 3
 262 245 252.51 300 200 300 c 3
EndSplineSet
EndChar

StartChar: c
Encoding: 99 99 21
Width: 443
VWidth: 0
Flags: W
HStem: -10 39<210.36 340.138> 391 39<191.174 301.325>
VStem: 35 97<119.979 307.25>
LayerCount: 2
Back
Fore
SplineSet
249 391 m 7
 205 391 132 357 132 228 c 7
 132 127 183 29 269 29 c 7
 320 29 361 55 392 95 c 13
 418 81 l 21
 385 20 333 -10 255 -10 c 7
 120 -10 35 62 35 212 c 7
 35 368 169 430 262 430 c 7
 343 430 405 387 405 364 c 7
 405 342 389 319 362 319 c 7
 330 319 317 391 249 391 c 7
EndSplineSet
EndChar

StartChar: s
Encoding: 115 115 22
Width: 369
VWidth: 0
Flags: W
HStem: -10 39<115.353 233.186> 391 39<140.615 248.87>
VStem: 35 23<93.3392 118.205> 41 85<276.651 372.616> 249 85<42.2114 144.796> 290 23<307.934 335.515>
LayerCount: 2
Back
Fore
SplineSet
334 125 m 3xd8
 334 16 261 -10 188 -10 c 3
 131 -10 72 6 51 16 c 1
 35 116 l 1
 45 120 53 120 58 120 c 1
 76 58 137 29 175 29 c 3
 235 29 249 57 249 99 c 3xe8
 249 146 203 164 171 174 c 0
 147 182 41 214 41 300 c 3
 41 402 132 430 205 430 c 3
 262 430 277 421 298 411 c 1
 313 310 l 1
 303 306 295 307 290 307 c 1xd4
 272 369 230 391 192 391 c 3
 143 391 126 364 126 326 c 3
 126 277 171 256 211 243 c 0
 249 231 334 195 334 125 c 3xd8
EndSplineSet
EndChar

StartChar: g
Encoding: 103 103 23
Width: 471
VWidth: 0
Flags: W
HStem: -270 39<161.029 308.596> -26 72<150.27 337.947> 117 39<179.445 281.885> 351 61<388 437> 391 39<167.506 261.738>
VStem: 35 84<-193.837 -93.804> 47 85<203.929 340.566> 307 85<195.847 339.927> 385 59<-163.065 -68.8622>
LayerCount: 2
Back
Fore
SplineSet
307 396 m 17xf1
 451 412 l 1
 444 396 437 366 437 351 c 9
 307 351 l 25
 307 396 l 17xf1
171 -26 m 17
 126 -62 119 -108 119 -146 c 3
 119 -176 153 -231 229 -231 c 3
 273 -231 385 -209 385 -120 c 3xe480
 385 -75 332 -26 269 -26 c 10
 171 -26 l 17
132 166 m 9xe2
 184 143 l 17
 163 118 132 75 132 58 c 3xe2
 132 47 281 46 281 46 c 2
 366 39 444 3 444 -107 c 3
 444 -163 352 -270 210 -270 c 3
 111 -270 35 -233 35 -146 c 3
 35 -124 52 -86 119 -26 c 1xe480
 81 -26 41 11 41 46 c 1
 85 65 132 146 132 166 c 9xe2
217 391 m 3xeb
 170 391 132 351 132 286 c 3
 132 220 169 156 229 156 c 3
 278 156 307 186 307 254 c 3
 307 316 272 391 217 391 c 3xeb
47 260 m 3
 47 351 124 430 229 430 c 3
 332 430 392 335 392 280 c 3
 392 185 324 117 217 117 c 3
 110 117 47 203 47 260 c 3
EndSplineSet
EndChar

StartChar: f
Encoding: 102 102 24
Width: 335
VWidth: 0
Flags: W
HStem: -4 30<183.864 241.182> 370 50<48.3193 296.52> 646 59<232.476 325.677>
VStem: 91 85<35.6212 559.355>
LayerCount: 2
Back
Fore
SplineSet
237 370 m 2
 91 370 l 2
 59 370 48 367 30 364 c 1
 30 386 36 411 60 420 c 9
 322 420 l 17
 296 364 l 1
 290 365 272 370 237 370 c 2
176 455 m 2
 176 52 l 2
 176 32 232 32 238 26 c 0
 241 23 242 22 242 -4 c 1
 218 -1 171 0 130 0 c 0
 89 0 56 -1 26 -4 c 1
 26 9 28 16 32 20 c 0
 45 33 91 28 91 52 c 2
 91 455 l 2
 91 639 245 705 318 705 c 7
 375 705 430 650 430 633 c 7
 430 612 376 587 358 587 c 5
 322 631 315 646 254 646 c 7
 214 646 176 607 176 455 c 2
EndSplineSet
EndChar

StartChar: t
Encoding: 116 116 25
Width: 357
VWidth: 0
Flags: W
HStem: -10 39<198.392 285.086> 375 45<165 302.156>
VStem: 93 86<44.8524 375> 165 14<375 420>
LayerCount: 2
Back
Fore
SplineSet
166 515 m 3xe0
 178.042 515 179 505 179 505 c 1xd0
 179 173 l 6
 179 72 189 29 237 29 c 7
 270 29 296 53 327 93 c 5
 347 81 l 5
 314 20 271 -10 223 -10 c 7
 134 -10 93 36 93 154 c 6
 93 375 l 25
 35 375 l 17
 35 388 45.1758 398.81 55 408 c 0
 86 437 155.802 515 166 515 c 3xe0
249 375 m 2
 165 375 l 25
 165 420 l 25
 327 420 l 17
 301 370 l 1
 295 371 284 375 249 375 c 2
EndSplineSet
EndChar

StartChar: v
Encoding: 118 118 26
Width: 455
VWidth: 0
Flags: W
HStem: -10 21G<219.462 241.667> 394 26<299.517 342.639>
LayerCount: 2
Back
Fore
SplineSet
450 420 m 1
 450 407 448 404 444 400 c 1
 431 387 406 390 398 368 c 10
 262 0 l 18
 258.267 -10.1025 240.571 -10 226 -10 c 27
 212.925 -10 197.643 -9.7832 194 0 c 10
 57 368 l 22
 50 386 14 389 9 394 c 5
 6 397 5 394 5 420 c 5
 215 420 l 5
 215 407 212 404 208 400 c 5
 195 387 142 390 150 368 c 14
 267 39 l 25
 215 0 l 9
 351 368 l 18
 357 386 308 389 303 394 c 1
 300 397 299 394 299 420 c 1
 450 420 l 1
EndSplineSet
EndChar

StartChar: w
Encoding: 119 119 27
Width: 676
VWidth: 0
Flags: W
HStem: -10 21G<206.462 228.667 440.462 462.667> 394 26<520.517 564.083>
LayerCount: 2
Back
Fore
SplineSet
671 420 m 1
 671 407 669 404 665 400 c 1
 652 387 628 390 619 368 c 10
 483 0 l 18
 479.267 -10.1025 461.571 -10 447 -10 c 27
 433.925 -10 418.101 -10.9707 415 0 c 10
 311 368 l 18
 305 386 268 389 263 394 c 1
 260 397 259 394 259 420 c 1
 462 420 l 1
 462 407 459 404 455 400 c 1
 442 387 390 390 397 368 c 10
 488 39 l 25
 436 0 l 9
 572 368 l 18
 579 386 529 389 524 394 c 1
 521 397 520 394 520 420 c 1
 671 420 l 1
202 420 m 1
 202 407 199 404 195 400 c 1
 182 387 142 390 150 368 c 10
 254 39 l 25
 202 0 l 9
 338 368 l 25
 385 368 l 25
 249 0 l 18
 245.267 -10.1025 227.571 -10 213 -10 c 27
 199.925 -10 184.439 -10.207 181 0 c 10
 57 368 l 18
 50 386 14 389 9 394 c 1
 6 397 5 394 5 420 c 1
 202 420 l 1
EndSplineSet
EndChar

StartChar: z
Encoding: 122 122 28
Width: 421
VWidth: 0
Flags: W
HStem: 0 75<146 334.997> 345 75<88.6919 281>
VStem: 35 24<274.795 300.574> 368 23<118.783 142.205>
LayerCount: 2
Back
Fore
SplineSet
390 420 m 9
 146 75 l 29
 251 75 l 6
 289 75 350 82 368 144 c 5
 373 144 381 144 391 140 c 5
 376 13 l 1
 355 3 295 0 238 0 c 2
 30 0 l 25
 281 345 l 17
 156 345 l 2
 118 345 77 335 59 273 c 1
 54 273 45 273 35 277 c 1
 51 400 l 1
 72 410 86 420 143 420 c 2
 390 420 l 9
EndSplineSet
EndChar

StartChar: y
Encoding: 121 121 29
Width: 468
VWidth: 0
Flags: W
HStem: -270 72<76.5 144.557> -20 20G<202.5 268> 0 21G<222.391 241.667> 394 26<299.517 342.639>
LayerCount: 2
Back
Fore
SplineSet
268 0 m 1xd0
 234 -70 197 -270 105 -270 c 7
 48 -270 45 -222 45 -205 c 7
 45 -184 87 -166 105 -166 c 5
 105 -185 109 -198 118 -198 c 7
 158 -198 190 -60 215 0 c 9
 268 0 l 1xd0
463 420 m 1
 463 407 461 404 457 400 c 1
 444 387 420 390 411 368 c 10
 268 0 l 25
 207 -26 l 25
 57 368 l 18
 50 386 14 389 9 394 c 1
 6 397 5 394 5 420 c 1
 215 420 l 1
 215 407 212 404 208 400 c 1
 195 387 142 390 150 368 c 10
 267 39 l 25
 215 0 l 9
 351 368 l 18
 357 386 308 389 303 394 c 1
 300 397 299 394 299 420 c 1
 463 420 l 1
EndSplineSet
EndChar

StartChar: k
Encoding: 107 107 30
Width: 525
VWidth: 0
Flags: MW
HStem: -4 30<191.917 237.182> 208 39<186 197> 394 26<259.517 303.283> 614 28<42 88.6137> 681 20G<174.5 190>
VStem: 100 86<33.9572 208 247 607.855>
DStem2: 197 247 265 240 0.68089 0.732386<41.1738 167.29> 265 240 197 208 0.697461 -0.716622<0 192.159>
LayerCount: 2
Back
Fore
SplineSet
100 565 m 18
 100 606.01171875 77 614 42 614 c 9
 42 642 l 17
 73 642 157 672 192 701 c 1
 188 682 186 659 186 615 c 2
 186 247 l 1
 197 247 l 9
 311 368 l 18
 325 382 268 389 263 394 c 1
 260 397 259 394 259 420 c 1
 449 420 l 1
 449 407 447 404 443 400 c 1
 430 387 400 385 384 368 c 10
 265 240 l 25
 447 53 l 18
 463 36 493 33 506 20 c 1
 510 16 512 10 512 -3 c 1
 482 1 452.862304688 1 415 1 c 27
 368.561523438 1 319 1 296 -3 c 1
 296 23 297 24 300 27 c 1
 305 32 362 40 348 53 c 10
 197 208 l 17
 186 208 l 9
 186 52 l 18
 186 32 228 32 234 26 c 1
 237 23 238 22 238 -4 c 1
 214 -1 185.576171875 0 152 0 c 27
 106.34375 0 65 -1 35 -4 c 1
 35 9 37 16 41 20 c 1
 54 33 100 28 100 52 c 10
 100 565 l 18
EndSplineSet
EndChar

StartChar: x
Encoding: 120 120 31
Width: 448
VWidth: 0
Flags: MW
HStem: -4 30<124.995 173.182> 394 26<11.3403 59.1028 263.818 304.621>
DStem2: 165 368 62 378 0.584952 -0.811068<-11.0572 117.639 189.121 344.966> 65 52 125 48 0.589573 0.807715<26.2057 179.773 276.746 399.379>
LayerCount: 2
Back
Fore
SplineSet
357 0 m 7
 320 0 283 0 256 -4 c 5
 256 8 258 14 262 18 c 4
 274 30 306.645507812 30.224609375 295 47 c 14
 211 168 l 25
 125 48 l 18
 109.154296875 25.8896484375 165 31 170 26 c 1
 173 23 174 22 174 -4 c 1
 151 0 119.745117188 0 85 0 c 27
 51.8134765625 0 40 0 5 -4 c 1
 5 9 8 16 12 20 c 1
 25 33 42.435546875 20.681640625 65 52 c 10
 181 213 l 25
 62 378 l 18
 51.2138671875 393.337890625 19 389 14 394 c 1
 11 397 10 394 10 420 c 1
 200 420 l 1
 200 407 197 404 193 400 c 1
 180 387 151.950195312 386.422851562 165 368 c 10
 233 272 l 25
 302 368 l 18
 319.509765625 392.360351562 272 385 267 390 c 1
 264 393 263 394 263 420 c 1
 427 420 l 1
 427 407 424 401 420 397 c 1
 407 384 379.162109375 392.8828125 361 368 c 10
 261 231 l 25
 384 51 l 22
 404.66015625 20.765625 423 33 436 20 c 5
 440 16 443 9 443 -4 c 5
 406 0 399 0 357 0 c 7
EndSplineSet
EndChar

StartChar: O
Encoding: 79 79 32
Width: 729
VWidth: 0
Flags: W
HStem: -10 42<290.025 470.628> 619 41<265.727 440.764>
VStem: 40 101<202.589 449.026> 589 100<186.044 448.246>
LayerCount: 2
Back
Fore
SplineSet
344 619 m 3
 219 619 141 501 141 337 c 3
 141 176 218 32 385 32 c 3
 503 32 589 124 589 301 c 3
 589 436 540 619 344 619 c 3
40 313 m 3
 40 523 175 660 356 660 c 3
 575 660 689 494 689 325 c 3
 689 85 535 -10 374 -10 c 3
 168 -10 40 120 40 313 c 3
EndSplineSet
EndChar

StartChar: E
Encoding: 69 69 33
Width: 621
VWidth: 0
Flags: W
HStem: 0 47<198.16 495.366> 313 48<198 399.718> 408 20G<437 450.436> 603 47<198.271 479.887>
VStem: 105 93<48.9409 313 361 601.42> 412 16<239 271.421> 505 18<528 557.84> 554 17<134.984 152.471>
LayerCount: 2
Back
Fore
SplineSet
152 0 m 2
 114 0 72 0 45 -4 c 1
 45 8 47 14 51 18 c 0
 63 30 105 26 105 47 c 2
 105 603 l 2
 105 624 63 620 51 632 c 0
 47 636 45 642 45 654 c 1
 72 650 115 650 152 650 c 2
 548 650 l 1
 523 522 l 1
 505 528 l 1
 505 528 500 603 424 603 c 2
 229 603 l 2
 222 603 198 597 198 578 c 2
 198 361 l 1
 378 361 l 2
 422 361 409 391 437 422 c 1
 453 428 l 1
 428 233 l 1
 412 239 l 1
 399 263 410 313 376 313 c 2
 198 313 l 1
 198 71 l 2
 198 53 223 47 230 47 c 2
 436 47 l 2
 520 47 554 156 554 156 c 1
 571 150 l 5
 549 0 l 1
 152 0 l 2
EndSplineSet
EndChar

StartChar: C
Encoding: 67 67 34
Width: 658
VWidth: 0
Flags: W
HStem: -10 42<291.077 529.604> 485 21G<556 575.906> 619 41<271.77 478.01>
VStem: 40 111<195.504 445.804>
LayerCount: 2
Back
Fore
SplineSet
532 564 m 1
 478 615 413 619 350 619 c 3
 225 619 151 501 151 337 c 7
 151 176 219 32 386 32 c 3
 472 32 542 48 596 85 c 9
 608 49 l 17
 546 2 465 -10 374 -10 c 3
 168 -10 40 120 40 313 c 3
 40 523 181 660 362 660 c 3
 462 660 530 638 597 613 c 1
 572 485 l 1
 556 491 l 1
 532 564 l 1
EndSplineSet
EndChar

StartChar: G
Encoding: 71 71 35
Width: 695
VWidth: 0
Flags: W
HStem: -10 42<319.507 504.228> 286 23<399 466.364 622.915 662> 619 41<281.075 488.01>
VStem: 50 101<195.504 445.804> 508 93<36.5551 260.549>
LayerCount: 2
Back
Fore
SplineSet
665 309 m 25
 662 286 l 17
 619 286 602 268 601 185 c 10
 601 26 l 17
 553 2 505 -10 384 -10 c 3
 178 -10 50 120 50 313 c 3
 50 523 191 660 372 660 c 3
 472 660 540 638 607 613 c 1
 582 485 l 1
 566 491 l 1
 542 564 l 1
 488 615 423 619 360 619 c 3
 235 619 151 501 151 337 c 3
 151 176 208 32 457 32 c 3
 480 32 508 38 508 68 c 2
 508 185 l 2
 508 268 469 286 399 286 c 9
 397 309 l 17
 665 309 l 25
EndSplineSet
EndChar

StartChar: D
Encoding: 68 68 36
Width: 687
VWidth: 0
Flags: W
HStem: 0 47<198.16 435.113> 603 47<198.271 411.11>
VStem: 105 93<48.9409 601.42> 547 100<187.829 448.394>
LayerCount: 2
Back
Fore
SplineSet
343 47 m 2
 461 47 547 124 547 301 c 3
 547 436 504 603 308 603 c 2
 229 603 l 2
 222 603 198 597 198 578 c 2
 198 71 l 2
 198 53 223 47 230 47 c 2
 343 47 l 2
152 0 m 2
 114 0 72 0 45 -4 c 1
 45 8 47 14 51 18 c 0
 63 30 105 26 105 47 c 2
 105 603 l 2
 105 624 63 620 51 632 c 0
 47 636 45 642 45 654 c 1
 72 650 115 650 152 650 c 2
 320 650 l 2
 556 650 647 494 647 325 c 3
 647 85 493 0 332 0 c 2
 152 0 l 2
EndSplineSet
EndChar

StartChar: B
Encoding: 66 66 37
Width: 610
VWidth: 0
Flags: W
HStem: 0 47<198.16 400.325> 318 40<198 353.586> 603 47<198.271 356.047>
VStem: 105 93<48.9409 318 358 601.42> 424 96<422.78 543.034> 462 98<99.9127 243.712>
LayerCount: 2
Back
Fore
SplineSet
297 47 m 2xf4
 449 47 462 133 462 170 c 3
 462 239.180664062 408 318 290 318 c 2
 198 318 l 1
 198 71 l 2
 198 53 223 47 230 47 c 2
 297 47 l 2xf4
317 0 m 2
 152 0 l 2
 114 0 72 0 45 -4 c 1
 45 8 47 14 51 18 c 0
 63 30 105 26 105 47 c 2
 105 603 l 2
 105 624 63 620 51 632 c 0
 47 636 45 642 45 654 c 1
 72 650 115 650 152 650 c 2
 298 650 l 6
 446 650 520 565 520 502 c 3xf8
 520 409 447 352 379 344 c 1
 478 337 560 278 560 182 c 3
 560 84 481 0 317 0 c 2
281 603 m 6
 229 603 l 2
 222 603 198 597 198 578 c 2
 198 358 l 1
 266 358 l 2
 366 358 424 416 424 479 c 3
 424 543 363 603 281 603 c 6
EndSplineSet
EndChar

StartChar: F
Encoding: 70 70 38
Width: 610
VWidth: 0
Flags: W
HStem: -4 28<207.249 281.182> 307 48<198 405.718> 402 20G<443 456.436> 603 47<198.271 491.887>
VStem: 105 93<33.8841 307 355 601.42> 418 16<233 265.421> 517 18<528 557.84>
LayerCount: 2
Back
Fore
SplineSet
229 603 m 2
 222 603 198 597 198 578 c 2
 198 355 l 1
 384 355 l 2
 428 355 415 385 443 416 c 1
 459 422 l 1
 434 227 l 1
 418 233 l 1
 405 257 416 307 382 307 c 2
 198 307 l 1
 198 47 l 2
 198 29 273 29 278 24 c 0
 281 21 282 19 282 -4 c 1
 260 -1 183 0 146 0 c 3
 109 0 72 -1 45 -4 c 1
 45 8 47 14 51 18 c 0
 63 30 105 26 105 47 c 2
 105 603 l 2
 105 624 63 620 51 632 c 0
 47 636 45 642 45 654 c 1
 72 650 115 650 152 650 c 2
 560 650 l 1
 535 522 l 1
 517 528 l 1
 517 528 512 603 436 603 c 2
 229 603 l 2
EndSplineSet
EndChar

StartChar: L
Encoding: 76 76 39
Width: 555
VWidth: 0
Flags: W
HStem: 0 47<205.436 463.366> 626 24<208.137 257.613>
VStem: 105 93<53.8494 618.215>
LayerCount: 2
Back
Fore
SplineSet
258 650 m 1
 258 626 257 628 255 626 c 0
 250 621 198 621 198 603 c 2
 198 130 l 2
 198 49 208 47 289 47 c 2
 404 47 l 2
 488 47 522 156 522 156 c 1
 540 150 l 1
 517 0 l 1
 152 0 l 2
 114 0 72 0 45 -4 c 1
 45 8 47 14 51 18 c 0
 63 30 105 26 105 47 c 2
 105 603 l 2
 105 624 63 620 51 632 c 0
 47 636 45 638 45 650 c 1
 258 650 l 1
EndSplineSet
EndChar

StartChar: I
Encoding: 73 73 40
Width: 285
VWidth: 0
Flags: W
HStem: -4 28<195.777 258.954> 626 24<200.258 259.318>
VStem: 96 92<32.9546 617.045>
LayerCount: 2
Back
Fore
SplineSet
260 650 m 5
 260 626 258 628 256 626 c 4
 251 621 188 621 188 603 c 6
 188 47 l 2
 188 29 251 29 256 24 c 0
 258 22 260 20 260 -4 c 1
 239 0 180 0 143 0 c 3
 106 0 52 0 25 -4 c 1
 25 8 27 14 31 18 c 0
 43 30 96 26 96 47 c 2
 96 603 l 6
 96 624 43 620 31 632 c 4
 27 636 25 638 25 650 c 5
 260 650 l 5
EndSplineSet
EndChar

StartChar: H
Encoding: 72 72 41
Width: 737
VWidth: 0
Flags: W
HStem: -4 28<206.777 269.954 637.9 701.384> 307 48<199 537> 626 24<212.492 270.318 642.451 701.613>
VStem: 106 93<32.9546 246.813 559.563 616.615> 537 93<32.9546 307 355 617.045>
LayerCount: 2
Back
Fore
SplineSet
702 650 m 1
 702 626 701 628 699 626 c 0
 694 621 630 621 630 603 c 6
 630 47 l 2
 630 29 694 29 699 24 c 0
 701 22 702 20 702 -4 c 1
 681 0 621 0 584 0 c 3
 547 0 493 0 466 -4 c 1
 466 8 468 14 472 18 c 0
 484 30 537 26 537 47 c 2
 537 307 l 1
 199 307 l 1
 199 47 l 2
 199 29 262 29 267 24 c 0
 269 22 271 20 271 -4 c 1
 250 0 184 0 147 0 c 3
 110 0 62 0 35 -4 c 1
 35 8 37 14 41 18 c 0
 53 30 106 26 106 47 c 2
 106 603 l 2
 106 624 53 620 41 632 c 0
 37 636 35 638 35 650 c 1
 271 650 l 1
 271 626 269 628 267 626 c 0
 262 621 199 620 199 603 c 2
 199 355 l 1
 537 355 l 1
 537 603 l 2
 537 624 484 620 472 632 c 0
 468 636 466 638 466 650 c 1
 702 650 l 1
EndSplineSet
EndChar

StartChar: T
Encoding: 84 84 42
Width: 609
VWidth: 0
Flags: W
HStem: -4 28<365.777 428.954> 603 47<81.6343 264 358 534.474>
VStem: 264 94<32.9546 603>
LayerCount: 2
Back
Fore
SplineSet
358 603 m 25
 358 47 l 2
 358 29 421 29 426 24 c 0
 428 22 430 20 430 -4 c 1
 409 0 348 0 311 0 c 3
 274 0 220 0 193 -4 c 1
 193 8 195 14 199 18 c 0
 211 30 264 26 264 47 c 2
 264 603 l 25
 141 603 l 2
 57 603 23 494 23 494 c 1
 5 500 l 1
 28 650 l 1
 592 650 l 1
 599 500 l 1
 581 494 l 1
 581 494 562 603 478 603 c 2
 358 603 l 25
EndSplineSet
EndChar

StartChar: A
Encoding: 65 65 43
Width: 673
VWidth: 0
Flags: W
HStem: -4 28<125.968 202.384 603.813 661.954> 236 48<176 479> 640 20G<308.429 349.015>
LayerCount: 2
Back
Fore
SplineSet
64 47 m 10
 288 638 l 18
 292 647 319.342773438 660 345 660 c 31
 353.030273438 660 360 659 363 650 c 14
 594 47 l 22
 600 30 654 29 659 24 c 4
 661 22 663 20 663 -4 c 5
 642 0 569 0 532 0 c 3
 495 0 458 0 431 -4 c 1
 431 8 433 14 437 18 c 0
 449 30 497 27 490 47 c 10
 278 615 l 25
 349 650 l 9
 119 47 l 18
 113 30 195 29 200 24 c 0
 202 22 203 20 203 -4 c 1
 182 0 140 0 103 0 c 3
 66 0 32 0 5 -4 c 1
 5 8 7 14 11 18 c 0
 23 30 56 27 64 47 c 10
176 284 m 1
 479 284 l 1
 479 236 l 1
 176 236 l 1
 176 284 l 1
EndSplineSet
EndChar

StartChar: N
Encoding: 78 78 44
Width: 732
VWidth: 0
Flags: W
HStem: -4 28<171.777 234.954> 629 21<22.9663 62.6907 671.971 701.318>
VStem: 100 64<32.9546 488 617 622> 587 64<158 618.714>
LayerCount: 2
Back
Fore
SplineSet
587 0 m 1
 164 488 l 1
 164 47 l 2
 164 29 227 29 232 24 c 0
 234 22 236 20 236 -4 c 1
 215 0 149 0 112 0 c 0
 75 0 56 0 29 -4 c 1
 29 8 31 14 35 18 c 0
 47 30 100 26 100 47 c 2
 100 597 l 2
 100 622 38 617 26 629 c 0
 22 633 20 638 20 650 c 1
 170 650 l 1
 170 617 460 330 587 158 c 1
 587 603 l 1
 588 623 535 620 523 632 c 0
 519 636 517 638 517 650 c 1
 702 650 l 1
 702 626 700 628 698 626 c 0
 693 621 652 620 651 603 c 1
 651 -12 l 1
 625 -12 608 -12 587 0 c 1
EndSplineSet
EndChar

StartChar: R
Encoding: 82 82 46
Width: 637
VWidth: 0
Flags: W
HStem: 0 19<246.652 270.954 594.328 632> 286 41<198 244> 603 47<198.271 353.833>
VStem: 105 93<33.1309 286 327 601.42> 442 95<398.151 527.757>
LayerCount: 2
Back
Fore
SplineSet
632 0 m 1
 475 0 l 18
 448 0 338 279 272 279 c 9
 399 294 l 17
 537 54 578 19 637 19 c 1
 632 0 l 1
244 280 m 2
 198 286 l 1
 198 47 l 2
 198 29 263 29 268 24 c 0
 270 22 272 20 272 -4 c 1
 251 0 183 0 146 0 c 3
 109 0 72 0 45 -4 c 1
 45 8 47 14 51 18 c 0
 63 30 105 26 105 47 c 2
 105 603 l 2
 105 624 63 620 51 632 c 0
 47 636 45 642 45 654 c 1
 72 650 115 650 152 650 c 2
 295 650 l 2
 443 650 537 552 537 489 c 3
 537 400 480.434 249.161 244 280 c 2
248 603 m 2
 229 603 l 2
 222 603 198 597 198 578 c 2
 198 327 l 1
 244 327 l 2
 344 327 442 369 442 465 c 3
 442 529 376 603 248 603 c 2
EndSplineSet
EndChar

StartChar: P
Encoding: 80 80 47
Width: 577
VWidth: 0
Flags: W
HStem: -4 28<207.249 281.182> 268 48<198 360.468> 603 47<198.271 360.907>
VStem: 105 93<33.8841 268 316 601.42> 442 95<383.762 529.348>
LayerCount: 2
Back
Fore
SplineSet
277 268 m 2
 198 268 l 1
 198 47 l 2
 198 29 273 29 278 24 c 0
 281 21 282 19 282 -4 c 1
 260 -1 183 0 146 0 c 0
 109 0 72 -1 45 -4 c 1
 45 8 47 14 51 18 c 0
 63 30 105 26 105 47 c 2
 105 603 l 2
 105 624 63 620 51 632 c 0
 47 636 45 642 45 654 c 1
 72 650 115 650 152 650 c 2
 315 650 l 2
 463 650 537 542 537 479 c 3
 537 354 476 268 277 268 c 2
268 603 m 2
 229 603 l 2
 222 603 198 597 198 578 c 2
 198 316 l 1
 254 316 l 2
 354 316 442 360 442 455 c 3
 442 519 396 603 268 603 c 2
EndSplineSet
EndChar

StartChar: J
Encoding: 74 74 48
Width: 285
VWidth: 0
Flags: W
HStem: -270 71<-66 44.4527> 626 24<200.258 259.318>
VStem: 96 92<-73.4711 617.045>
LayerCount: 2
Back
Fore
SplineSet
260 650 m 1
 260 626 258 628 256 626 c 0
 251 621 188 621 188 603 c 10
 188 97 l 18
 188 -155 84 -270 -46 -270 c 3
 -86 -270 -136 -242 -136 -222 c 3
 -136 -172 -75 -157 -58 -157 c 1
 -58 -169 -6 -199 25 -199 c 3
 87 -199 96 -167 96 168 c 10
 96 603 l 18
 96 624 43 620 31 632 c 0
 27 636 25 638 25 650 c 1
 260 650 l 1
EndSplineSet
EndChar

StartChar: S
Encoding: 83 83 49
Width: 526
VWidth: 0
Flags: W
HStem: -10 36<196.489 333.801> 624 36<206.771 352.726>
VStem: 50 33<143.714 177.869> 68 83<442.154 560.599> 393 83<79.8927 214.179> 424 33<490.131 536.45>
LayerCount: 2
Back
Fore
SplineSet
476 184 m 3xd8
 476 85 434 -10 273 -10 c 3
 152 -10 89 40 70 49 c 1
 50 176 l 1
 59 180 78 179 83 179 c 1
 100 122 175 26 261 26 c 3
 369 26 393 111 393 149 c 3xe8
 393 242 287 273 257 282 c 0
 235 289 68 343 68 471 c 3
 68 564 128 660 288 660 c 7
 350 660 404 637 437 619 c 1
 457 492 l 1
 448 488 429 489 424 489 c 1xd4
 407 546 391 624 276 624 c 3
 169 624 151 541 151 506 c 3
 151 415 256 381 293 369 c 0
 327 358 476 323 476 184 c 3xd8
EndSplineSet
EndChar

StartChar: U
Encoding: 85 85 50
Width: 721
VWidth: 0
Flags: W
HStem: -10 47<276.411 466.197> 626 24<35.3875 93.7417 491.682 549.935>
VStem: 106 93<127.447 617.045> 562 60<145.068 617.045>
LayerCount: 2
Back
Fore
SplineSet
681 650 m 1
 681 638 680 636 676 632 c 1
 664 620 622 624 622 603 c 10
 622 260 l 18
 622 102 554 -10 348 -10 c 3
 179 -10 106 89 106 260 c 10
 106 603 l 18
 106 621 43 621 38 626 c 1
 36 628 35 626 35 650 c 1
 270 650 l 1
 270 638 268 636 264 632 c 1
 252 620 199 624 199 603 c 10
 199 260 l 18
 199 116 239 37 373 37 c 3
 508 37 562 135 562 260 c 10
 562 603 l 18
 562 621 500 621 495 626 c 1
 493 628 491 626 491 650 c 1
 681 650 l 1
EndSplineSet
EndChar

StartChar: Q
Encoding: 81 81 51
Width: 729
VWidth: 0
Flags: W
HStem: -269 19<652.742 702> -10 42<290.025 470.628> 619 41<265.727 440.764>
VStem: 40 101<202.589 449.026> 589 100<186.044 448.246>
LayerCount: 2
Back
Fore
SplineSet
702 -269 m 1
 674 -269 l 17
 423 -269 393 1 317 1 c 9
 449 31 l 17
 528 -185 618 -250 707 -250 c 1
 702 -269 l 1
EndSplineSet
Refer: 32 79 N 1 0 0 1 0 0 2
EndChar

StartChar: V
Encoding: 86 86 52
Width: 692
VWidth: 0
Flags: W
HStem: -10 21G<332.662 365.571> 626 24<5.38745 59.8666 485.387 545.15>
LayerCount: 2
Back
Fore
SplineSet
687 650 m 1
 687 638 685 636 681 632 c 1
 669 620 624 623 616 603 c 10
 386 0 l 18
 383 -9 366.448 -10 353 -10 c 27
 334.26 -10 308 -10 306 0 c 10
 76 603 l 18
 70 620 13 621 8 626 c 1
 6 628 5 626 5 650 c 1
 254 650 l 1
 254 638 252 636 248 632 c 1
 236 620 176 623 183 603 c 10
 396 35 l 25
 325 0 l 9
 556 603 l 18
 562 620 493 621 488 626 c 1
 486 628 485 626 485 650 c 1
 687 650 l 1
EndSplineSet
EndChar

StartChar: W
Encoding: 87 87 53
Width: 987
VWidth: 0
Flags: W
HStem: -10 21G<332.639 365.571 650.866 684.571> 626 24<5.38745 59.8666 358.387 412.867 780.682 840.362>
LayerCount: 2
Back
Fore
SplineSet
982 650 m 1
 982 638 981 636 977 632 c 1
 965 620 919 623 912 603 c 10
 705 0 l 18
 702 -10 685.448 -10 672 -10 c 27
 653.26 -10 628.152 -9.69824 625 0 c 10
 429 603 l 22
 423 620 366 621 361 626 c 5
 359 628 358 626 358 650 c 5
 607 650 l 5
 607 638 605 636 601 632 c 5
 589 620 529 623 536 603 c 14
 715 35 l 25
 644 0 l 9
 851 603 l 18
 857 620 789 621 784 626 c 1
 782 628 780 626 780 650 c 1
 982 650 l 1
546 422 m 1
 386 0 l 2
 383 -9 366.448 -10 353 -10 c 27
 334.26 -10 308 -10 306 0 c 10
 76 603 l 18
 70 620 13 621 8 626 c 1
 6 628 5 626 5 650 c 1
 254 650 l 1
 254 638 252 636 248 632 c 1
 236 620 176 623 183 603 c 10
 396 35 l 25
 325 0 l 1
 511 487 l 1
 546 422 l 1
EndSplineSet
EndChar

StartChar: X
Encoding: 88 88 55
Width: 658
VWidth: 0
Flags: MW
HStem: -4 28<154.77 218.954> 624 26<30.5174 98.7557 590.497 649.612>
DStem2: 88 47 148 47 0.602521 0.798103<36.1512 327.957 437.424 701.305> 215 598 102 608 0.563337 -0.826227<-11.4848 250.197 325.534 615.228>
LayerCount: 2
Back
Fore
SplineSet
594 51 m 18
 614.66015625 20.765625 633 33 646 20 c 1
 650 16 653 9 653 -4 c 1
 616 0 599 0 557 0 c 3
 520 0 473 0 446 -4 c 1
 446 8 448 14 452 18 c 0
 464 30 496.645507812 30.224609375 485 47 c 10
 325 279 l 25
 148 47 l 18
 138 33 211 29 216 24 c 0
 218 22 220 20 220 -4 c 1
 199 0 160 0 123 0 c 0
 86 0 32 0 5 -4 c 1
 5 8 7 14 11 18 c 0
 23 30 75 30 88 47 c 10
 297 322 l 25
 102 608 l 18
 91.2138671875 623.337890625 39 619 34 624 c 1
 31 627 30 624 30 650 c 1
 250 650 l 1
 250 637 247 634 243 630 c 1
 230 617 201.950195312 616.422851562 215 598 c 10
 357 392 l 25
 518 603 l 18
 531 620 465 620 453 632 c 0
 449 636 447 638 447 650 c 1
 651 650 l 1
 651 626 648 628 646 626 c 0
 641 621 588 617 577 603 c 10
 386 350 l 25
 594 51 l 18
EndSplineSet
EndChar

StartChar: Y
Encoding: 89 89 56
Width: 622
VWidth: 0
Flags: W
HStem: -4 28<362.9 426.384> 626 24<5.38745 55.4822 414.387 473.369>
VStem: 263 92<32.9546 319>
LayerCount: 2
Back
Fore
SplineSet
355 319 m 25
 355 47 l 2
 355 29 419 29 424 24 c 0
 426 22 427 20 427 -4 c 1
 406 0 347 0 310 0 c 3
 273 0 219 0 192 -4 c 1
 192 8 194 14 198 18 c 0
 210 30 263 26 263 47 c 2
 263 319 l 25
 355 319 l 25
617 650 m 1
 617 638 615 636 611 632 c 1
 599 620 558 620 546 603 c 10
 346 272 l 18
 341 264 327 260 313 260 c 27
 294 260 271 264 266 272 c 10
 76 603 l 18
 66 618 13 621 8 626 c 1
 6 628 5 626 5 650 c 1
 255 650 l 1
 255 638 254 636 250 632 c 1
 238 620 173 620 185 603 c 10
 351 307 l 25
 284 272 l 9
 485 603 l 18
 495 618 422 621 417 626 c 1
 415 628 414 626 414 650 c 1
 617 650 l 1
EndSplineSet
EndChar

StartChar: M
Encoding: 77 77 57
Width: 845
VWidth: 0
Flags: MW
HStem: -20 20G<73.5 110.5 717.5 754.5> -4 28<151.499 215.384 585.099 647.487 770.452 833.954> 400 20G<611.906 625.448>
DStem2: 80 47 144 47 0.0780645 0.996948<-6.98795 357.033> 128 660 171 398 0.52519 -0.850985<245.541 561.702> 423 182 393 38 0.521306 0.85337<0 307.885> 715 660 624 420 0.0764477 -0.997074<232.341 620.967>
LayerCount: 2
Back
Fore
SplineSet
393 38 m 25x60
 624 420 l 1
 651 47 l 2
 653 25 598 30 586 18 c 0
 582 14 580 8 580 -4 c 1x60
 607 0 699 0 736 0 c 3xa0
 773 0 814 0 835 -4 c 1
 835 20 833 22 831 24 c 0
 826 29 763.378 29.0244 762 47 c 2
 715 660 l 1
 423 182 l 1
 128 660 l 1
 80 47 l 2
 78.3535 25.9688 27 30 15 18 c 0
 11 14 10 8 10 -4 c 1x60
 37 0 55 0 92 0 c 3xa0
 129 0 195 0 216 -4 c 1
 216 20 215 22 213 24 c 0
 208 29 143 29 144 47 c 2
 171 398 l 1
 393 38 l 25x60
EndSplineSet
EndChar

StartChar: K
Encoding: 75 75 58
Width: 652
VWidth: 0
Flags: MW
HStem: -4 28<215.777 278.954> 626 24<220.258 279.318 389.387 438.052>
VStem: 116 92<32.9547 257 336 617.045>
DStem2: 208 336 301 361 0.668503 0.74371<80.7635 359.011> 301 361 240 296 0.650392 -0.759599<9.70005 336.348>
LayerCount: 2
Back
Fore
SplineSet
585 650 m 1
 585 638 583 636 579 632 c 0
 567 620 528 619 514 603 c 2
 301 361 l 1
 569 48 l 2
 583 32 634 30 646 18 c 0
 650 14 652 9 652 -3 c 1
 625 1 564 0 508 0 c 3
 466 0 421 1 400 -3 c 1
 400 21 402 22 404 24 c 0
 409 29 459 34 448 48 c 2
 240 296 l 1
 208 257 l 1
 208 47 l 2
 208 29 271 29 276 24 c 0
 278 22 280 20 280 -4 c 1
 259 0 200 0 163 0 c 3
 126 0 72 0 45 -4 c 1
 45 8 47 14 51 18 c 0
 63 30 116 26 116 47 c 2
 116 603 l 2
 116 624 63 620 51 632 c 0
 47 636 45 638 45 650 c 1
 280 650 l 1
 280 626 278 628 276 626 c 0
 271 621 208 621 208 603 c 2
 208 336 l 1
 448 603 l 2
 460 616 397 621 392 626 c 0
 390 628 389 626 389 650 c 1
 585 650 l 1
EndSplineSet
EndChar

StartChar: Z
Encoding: 90 90 59
Width: 575
VWidth: 0
Flags: W
HStem: 0 47<186 456.624> 603 47<108.741 376>
VStem: 40 28<515.795 547.744> 506 28<110.205 144.066>
LayerCount: 2
Back
Fore
SplineSet
503 650 m 9
 186 47 l 25
 388 47 l 2
 422 47 482 60 506 145 c 1
 511 145 525 146 534 142 c 1
 508 12 l 1
 489 3 428 0 376 0 c 2
 53 0 l 25
 376 603 l 17
 168 603 l 2
 122 603 85 571 68 514 c 1
 63 514 49 514 40 518 c 1
 66 632 l 1
 85 641 112 650 156 650 c 2
 503 650 l 9
EndSplineSet
EndChar

StartChar: zero
Encoding: 48 48 60
Width: 504
VWidth: 0
Flags: W
HStem: -10 39<201.941 315.067> 451 39<193.326 309.704>
VStem: 50 89<116.37 350.424> 365 89<104.54 356.492>
LayerCount: 2
Back
Fore
SplineSet
255 451 m 3
 153.757716343 451 139 348.017578125 139 235 c 3
 139 151.849609375 161.865688385 29 255 29 c 3
 356.004950374 29 365 140.995117188 365 235 c 7
 365 326.022460938 356.004950374 451 255 451 c 3
50 235 m 3
 50 342.004882812 107.986395187 490 255 490 c 3
 408.013071337 490 454 340 454 235 c 3
 454 114.99609375 414.314155052 -10 255 -10 c 3
 105.946318395 -10 50 117.931640625 50 235 c 3
EndSplineSet
EndChar

StartChar: one
Encoding: 49 49 61
Width: 336
VWidth: 0
Flags: W
HStem: -4 22<51.0991 99.0508 263.078 295.182> 399 30<40 95>
VStem: 141 72<33.8841 385.954>
LayerCount: 2
Back
Fore
SplineSet
40 399 m 1
 40 429 l 1
 93 429 183 454 219 495 c 1
 216 478 213 450 213 411 c 2
 213 47 l 18
 213 29 287 29 292 24 c 0
 295 21 296 19 296 -4 c 1
 274 -1 213 0 176 0 c 7
 139 0 73 -1 46 -4 c 1
 46 8 48 14 52 18 c 0
 64 30 141 26 141 47 c 10
 141 348 l 18
 141 374 124 390 95 393 c 10
 40 399 l 1
EndSplineSet
EndChar

StartChar: two
Encoding: 50 50 62
Width: 489
VWidth: 0
Flags: W
HStem: 0 57<152 391.461> 443 47<161.377 293.532>
VStem: 322 89<290.979 414.423> 422 27<101.517 134.066>
LayerCount: 2
Back
Fore
SplineSet
411 355 m 3
 411 260.994681002 245 145 152 57 c 9
 314 57 l 2
 348 57 398 50 422 135 c 1
 427 135 440 136 449 132 c 1
 433 12 l 1
 414 3 354 0 302 0 c 2
 35 0 l 17
 168 146 322 249.995117188 322 356 c 3
 322 410.037024344 282.008789062 443 227 443 c 3
 186.552734375 443 134 426 98 319 c 1
 93 319 80 318 71 322 c 1
 87 447 l 1
 106 463 168.9921875 490 237 490 c 3
 298.033203125 490 411 455.079968026 411 355 c 3
EndSplineSet
EndChar

StartChar: seven
Encoding: 55 55 63
Width: 481
VWidth: 0
Flags: W
HStem: -260 21G<145 248> 407 73<93.741 367>
VStem: 25 28<319.934 352.621> 145 93<-260 -222.639>
LayerCount: 2
Back
Fore
SplineSet
145 -260 m 17
 234 -110 286 195 367 407 c 1
 153 407 l 2
 107 407 70 376 53 319 c 1
 48 319 34 318 25 322 c 1
 51 462 l 1
 70 471 97 480 141 480 c 2
 466 480 l 1
 337 205 258 -149 238 -260 c 9
 145 -260 l 17
EndSplineSet
EndChar

StartChar: comma
Encoding: 44 44 64
Width: 270
VWidth: 0
Flags: W
HStem: -157 16<72 78.1213>
VStem: 147 53<-63.6433 40>
LayerCount: 2
Back
Fore
SplineSet
122 4 m 1
 106 4 70 25 70 61 c 3
 70 97 104 109 117 109 c 3
 154.013671875 109 200 71 200 9 c 3
 200 -68.0064932327 114 -157 72 -157 c 9
 56 -141 l 17
 88 -141 147 -72.049968789 147 -32 c 3
 147 0.0087890625 122 4 122 4 c 1
EndSplineSet
EndChar

StartChar: question
Encoding: 63 63 68
Width: 439
VWidth: 0
Flags: W
HStem: -13 112<156.658 243.342> 613 47<132.423 274.78>
VStem: 55 27<513.795 544.865> 130 57<230.925 288.127> 145 110<-1.78199 87.782> 296 103<484.231 592.227>
LayerCount: 2
Back
Fore
SplineSet
187 280 m 7xf4
 187 298 399 452 399 542 c 3
 399 625 308 660 230 660 c 3
 133 660 100 640 81 631 c 1
 55 516 l 1
 64 512 77 512 82 512 c 1
 99 569 131 613 206 613 c 3
 284 613 296 569 296 530 c 3
 296 453 130 273 130 256 c 7
 130 231 168 186 176 159 c 13
 230 217 l 21
 210 217 187 261 187 280 c 7xf4
EndSplineSet
Refer: 4 46 N 1 0 0 1 75 0 2
EndChar

StartChar: hyphen
Encoding: 45 45 71
Width: 400
VWidth: 0
Flags: W
HStem: 190 65<80 320>
VStem: 70 260
LayerCount: 2
Back
Fore
SplineSet
320 190 m 25
 70 190 l 25
 80 255 l 29
 330 255 l 25
 320 190 l 25
EndSplineSet
EndChar

StartChar: underscore
Encoding: 95 95 72
Width: 450
VWidth: 0
Flags: W
HStem: -110 60<0 450>
LayerCount: 2
Back
Fore
SplineSet
450 -110 m 25
 0 -110 l 25
 0 -50 l 25
 450 -50 l 25
 450 -110 l 25
EndSplineSet
EndChar

StartChar: plus
Encoding: 43 43 73
Width: 450
VWidth: 0
Flags: W
HStem: 190 65<60 395>
VStem: 200 60<60 380>
LayerCount: 2
Back
Fore
SplineSet
200 60 m 29
 200 380 l 25
 260 380 l 25
 260 60 l 29
 200 60 l 29
395 190 m 25
 50 190 l 25
 60 255 l 25
 405 255 l 25
 395 190 l 25
EndSplineSet
EndChar

StartChar: equal
Encoding: 61 61 74
Width: 420
VWidth: 0
Flags: W
HStem: 121 65<65 345> 264 65<75 355>
VStem: 55 310
LayerCount: 2
Back
Fore
SplineSet
345 121 m 25
 55 121 l 25
 65 186 l 25
 355 186 l 25
 345 121 l 25
355 264 m 25
 65 264 l 25
 75 329 l 25
 365 329 l 25
 355 264 l 25
EndSplineSet
EndChar

StartChar: four
Encoding: 52 52 75
Width: 529
VWidth: 0
Flags: W
HStem: -260 21G<297 379> 0 54<119 302 374 447.632>
VStem: 302 72<-237.4 0 54 355>
LayerCount: 2
Back
Fore
SplineSet
302 355 m 1
 231 268 178 140 119 54 c 1
 302 54 l 1
 302 355 l 1
375 431 m 2
 374 54 l 1
 434 57 446 70 472 102 c 1
 477 102 490 103 499 99 c 1
 481 12 l 1
 462 3 403 0 369 0 c 1
 369 -64 373.5 -240.5 379 -260 c 1
 297 -260 l 1
 301 -243.5 307 -50 307 0 c 1
 25 0 l 1
 131 165 197 305 313 460 c 1
 380 500 l 1
 378.25 476.924804688 375 466 375 431 c 2
EndSplineSet
EndChar

StartChar: three
Encoding: 51 51 76
Width: 461
VWidth: 0
Flags: W
HStem: -270 36<83.0429 214.965> 443 47<128.938 247.112>
VStem: 292 89<264.54 396.136> 332 89<-111.312 31.7767>
LayerCount: 2
Back
Fore
SplineSet
381 335 m 3xe0
 381 432.004882812 306.01953125 490 206 490 c 3
 152 490 82 451 66 437 c 1
 40 342 l 1
 49 340 62 339 67 339 c 1
 84 396 140.822265625 443 186 443 c 3
 245.211914062 443 292 390 292 326 c 3xe0
 292 274 228.926757812 192.603515625 155 153 c 2
 127 138 l 1
 127 108 l 1
 162 112 l 2
 210.932617188 117.591796875 332 69.22265625 332 -41 c 3
 332 -146.076171875 231.055664062 -234 150 -234 c 3
 116.984375 -234 69 -228 52 -171 c 1
 43 -171 31 -172 19 -174 c 1
 39 -241 l 1
 58 -250 106.985351562 -270 142 -270 c 3
 323 -270 421 -126.004882812 421 -26 c 3xd0
 421 79.0048828125 338 149 235 149 c 1
 312 189 381 246.977539062 381 335 c 3xe0
EndSplineSet
EndChar

StartChar: five
Encoding: 53 53 77
Width: 452
VWidth: 0
Flags: W
HStem: -270 36<18 110.583> 403 77<149.902 364> 470 20G<375.75 377.862>
VStem: 270 89<-76.9671 44.4005>
LayerCount: 2
Back
Fore
SplineSet
18 -234 m 3xd0
 195 -234 270 -87.0078125 270 -21 c 3
 270 94.017578125 133 112.35625 40 142 c 9
 116 480 l 17
 314 480 l 2xd0
 367.5 480 369.5 483 382 490 c 9xb0
 364 403 l 25
 174 403 l 18
 152 403 136.9609375 353.810546875 129.267578125 314.809570312 c 2
 108 207 l 1
 181 184.893554688 359 147.014648438 359 14 c 3
 359 -124.032226562 217 -270 10 -270 c 0
 18 -234 l 3xd0
EndSplineSet
EndChar

StartChar: six
Encoding: 54 54 78
Width: 466
VWidth: 0
Flags: W
HStem: -10 39<183.832 303.305> 331 39<202.213 305.703>
VStem: 35 89<103.932 343.053> 352 89<87.0537 280.737>
LayerCount: 2
Back
Fore
SplineSet
166 306 m 1
 178 313 209.379882812 331 247 331 c 3
 319.52734375 331 352 271.1015625 352 172 c 3
 352 43 281 29 237 29 c 3
 169 29 124 105.989 124 211 c 3
 124 452.117 246.5 557 368 640 c 9
 330 650 l 17
 228.5 591 35 442.001 35 216 c 3
 35 47.4053 143 -10 224 -10 c 3
 353.015625 -10 441 48.99609375 441 188 c 3
 441 311.171875 359.504882812 370 261 370 c 3
 217.31640625 370 178 333 170 327 c 1
 166 306 l 1
EndSplineSet
EndChar

StartChar: nine
Encoding: 57 57 79
Width: 481
VWidth: 0
Flags: W
HStem: 130 39<174.715 284.059> 451 39<170.649 293.557>
VStem: 35 89<223.993 388.549> 362 89<148.54 371.586>
LayerCount: 2
Back
Fore
SplineSet
310 184 m 5
 298 177 266.620117188 169 229 169 c 7
 156.47265625 169 124 247.998046875 124 308 c 7
 124 437 195 451 239 451 c 7
 307 451 362 374.010742188 362 269 c 7
 362 84.9990234375 209 -172 108 -270 c 9
 166 -260 l 17
 253.5 -192 451 89.994140625 451 264 c 7
 451 432.594726562 333 490 252 490 c 7
 159 490 35 448 35 292 c 7
 35 207.962890625 116.495117188 130 215 130 c 7
 258.68359375 130 298 157 306 163 c 5
 310 184 l 5
EndSplineSet
EndChar

StartChar: parenleft
Encoding: 40 40 80
Width: 315
VWidth: 0
Flags: W
VStem: 40 79<165.742 431.6>
LayerCount: 2
Back
Fore
SplineSet
275 -140 m 17
 206 -95 40 88.9130859375 40 297 c 7
 40 516.008789062 198 668 285 730 c 9
 305 696 l 17
 202 613 119 471 119 307 c 7
 119 146 192 -10 305 -106 c 9
 275 -140 l 17
EndSplineSet
EndChar

StartChar: slash
Encoding: 47 47 82
Width: 365
VWidth: 0
Flags: W
HStem: 680 20G<244.667 315>
VStem: 50 265
LayerCount: 2
Back
Fore
SplineSet
115 -70 m 25
 50 -50 l 25
 250 700 l 25
 315 680 l 25
 115 -70 l 25
EndSplineSet
EndChar

StartChar: backslash
Encoding: 92 92 83
Width: 370
VWidth: 0
Flags: W
LayerCount: 2
Back
Fore
SplineSet
120 705 m 25
 50 685 l 25
 250 -65 l 25
 320 -45 l 25
 120 705 l 25
EndSplineSet
EndChar

StartChar: bar
Encoding: 124 124 84
Width: 185
VWidth: 0
Flags: W
HStem: 0 21G<60 125> 630 20G<60 125>
VStem: 60 65<0 650>
LayerCount: 2
Back
Fore
SplineSet
125 0 m 29
 60 0 l 29
 60 650 l 25
 125 650 l 25
 125 0 l 29
EndSplineSet
EndChar

StartChar: numbersign
Encoding: 35 35 85
Width: 570
VWidth: 0
Flags: MW
HStem: 205 65<50 490> 385 65<80 520> 680 20G<226.533 295 396.533 465>
DStem2: 100 -50 165 -50 0.170787 0.985308<11.1011 761.183> 270 -50 335 -50 0.170787 0.985308<11.1011 761.183>
LayerCount: 2
Back
Fore
SplineSet
490 205 m 25
 40 205 l 25
 50 270 l 25
 500 270 l 25
 490 205 l 25
520 385 m 25
 70 385 l 25
 80 450 l 25
 530 450 l 25
 520 385 l 25
335 -50 m 25
 270 -50 l 25
 400 700 l 25
 465 700 l 25
 335 -50 l 25
165 -50 m 25
 100 -50 l 25
 230 700 l 25
 295 700 l 25
 165 -50 l 25
EndSplineSet
EndChar

StartChar: bracketleft
Encoding: 91 91 86
Width: 255
VWidth: 0
Flags: W
HStem: -130 46<125 225> 674 46<125 225>
VStem: 60 165<-129 -84 674 719> 60 65<-84 674>
LayerCount: 2
Back
Fore
SplineSet
225 719 m 5xe0
 225 674 l 1xe0
 125 674 l 1
 125 -84 l 1xd0
 225 -84 l 1
 225 -129 l 5xe0
 60 -130 l 1
 60 720 l 1xd0
 225 719 l 5xe0
EndSplineSet
EndChar

StartChar: less
Encoding: 60 60 89
Width: 390
VWidth: 0
Flags: W
VStem: 50 110.11<184.341 238.655>
LayerCount: 2
Back
Fore
SplineSet
330 56 m 1
 310 20 l 1
 310 20 50 181 50 210 c 3
 50 244.131835938 300 410 300 410 c 1
 320 374 l 1
 320 374 160.110351562 241 160.110351562 210 c 3
 160.110351562 185 330 56 330 56 c 1
EndSplineSet
EndChar

StartChar: eight
Encoding: 56 56 92
Width: 476
VWidth: 0
Flags: W
HStem: -10 39<171.486 299.011> 621 39<177.139 283.728>
VStem: 40 84<78.3315 223.88> 60 79<467.169 577.262> 332 74<432.164 575.052> 347 89<84.1109 196.854>
LayerCount: 2
Back
Fore
SplineSet
252 369 m 5xd8
 311 406 332 437.993164062 332 508 c 7
 332 574.068359375 278.010742188 621 232 621 c 7
 181 621 139 581.290039062 139 519 c 7xd8
 139 409.981445312 436 304.030273438 436 156 c 7
 436 50 318 -10 237 -10 c 7
 114 -10 40 57.9111328125 40 148 c 7
 40 221.061523438 109 311 200 350 c 5
 224 321 l 5
 156 278 124 234 124 162 c 7
 124 96.9921875 158.876953125 29 224 29 c 7
 292 29 347 62.9423828125 347 141 c 7xe4
 347 269 60 335.952148438 60 504 c 7
 60 589.146484375 139.926757812 660 249 660 c 7
 346 660 406 587.028320312 406 517 c 7
 406 429 351 377 276 340 c 5
 252 369 l 5xd8
EndSplineSet
EndChar

StartChar: asterisk
Encoding: 42 42 93
Width: 400
VWidth: 0
Flags: W
HStem: 374 276 479 21G<138.333 205 205 259.545>
VStem: 55 300
LayerCount: 2
Back
Fore
SplineSet
130 374 m 25xa0
 84 418 l 25
 205 537 l 29
 205 479 l 29x60
 130 374 l 25xa0
205 479 m 29
 205 517 l 29
 325 597 l 25
 355 534 l 25
 205 479 l 29
282 376 m 25
 205 479 l 29
 205 537 l 29
 330 422 l 25
 282 376 l 25
190 495 m 29
 165 650 l 25
 242 650 l 25xa0
 220 495 l 29
 190 495 l 29
205 479 m 29x60
 55 524 l 25
 85 587 l 25
 205 517 l 29
 205 479 l 29x60
EndSplineSet
EndChar

StartChar: percent
Encoding: 37 37 94
Width: 735
VWidth: 0
Flags: MW
HStem: -10 39<512.769 607.501> 0 21G<130 207.308> 236 39<512.116 610.235> 375 39<132.769 227.501> 621 39<132.116 230.235> 630 20G<517.692 595>
VStem: 30 77<441.048 584.091> 248 77<438.668 593.792> 410 77<56.0482 199.091> 628 77<53.6678 208.792>
DStem2: 130 0 195 0 0.524097 0.851658<34.0663 763.217>
LayerCount: 2
Back
Fore
SplineSet
558 236 m 3xb3c0
 501.46484375 236 487 181.002929688 487 133 c 3
 487 92.9716796875 500.5 29 557 29 c 3
 620.571289062 29 628 77.81640625 628 133 c 3
 628 176.002929688 633.60546875 236 558 236 c 3xb3c0
410 127 m 3
 410 206.001953125 486.493164062 275 560 275 c 3
 648.5 275 705 204.017578125 705 139 c 3
 705 38.96875 641.591796875 -10 554 -10 c 3
 446.481445312 -10 410 79.93359375 410 127 c 3
178 621 m 3x3bc0
 121.465 621 107 566.003 107 518 c 3
 107 477.972 120.5 414 177 414 c 3
 240.571 414 248 462.816 248 518 c 3
 248 561.003 253.605 621 178 621 c 3x3bc0
30 512 m 3
 30 591.002 106.493 660 180 660 c 3
 268.5 660 325 589.018 325 524 c 3
 325 423.969 261.592 375 174 375 c 3
 66.4814 375 30 464.934 30 512 c 3
195 0 m 29x77c0
 130 0 l 29
 530 650 l 29
 595 650 l 29
 195 0 l 29x77c0
EndSplineSet
EndChar

StartChar: degree
Encoding: 176 176 95
Width: 395
VWidth: 0
Flags: W
HStem: 440 39<159.504 234.869> 646 39<157.657 238.812>
VStem: 70 67<499.789 626.098> 258 67<500.157 629.952>
LayerCount: 2
Back
Fore
SplineSet
198 646 m 7
 158 646 137 605.013671875 137 568 c 7
 137 527.971679688 158 479 197 479 c 7
 228 479 258 512.81640625 258 568 c 7
 258 611.002929688 238 646 198 646 c 7
70 562 m 7
 70 619 126.493164062 685 200 685 c 7
 288 685 325 615 325 574 c 7
 325 490.513671875 272 440 194 440 c 7
 104 440 70 514.93359375 70 562 c 7
EndSplineSet
EndChar

StartChar: at
Encoding: 64 64 96
Width: 657
VWidth: 0
Flags: W
HStem: -60 39<247.43 445> 80 56<286.051 360.382 422.49 528.312> 301 46<306.551 374> 441 39<261.919 443.596>
VStem: 40 76<106.386 307.028> 194 84<141.93 271.268> 374 76<144.91 301> 551 66<160.011 323.99>
LayerCount: 2
Back
Fore
SplineSet
278 200 m 3
 278 153 293.262 136 324 136 c 27
 348.492 136 363 149 374 174 c 9
 374 301 l 17
 319 301 278 277 278 200 c 3
437 80 m 3
 407.979 80 381 97 381 129 c 1
 362 95 336 80 310 80 c 3
 270.987 80 194 114 194 188 c 3
 194 293 261 346 449 347 c 9
 450 194 l 18
 450.092 180 453 135 472 135 c 3
 497.318 135 551 151 551 219 c 3
 551 303 510.03 441 360 441 c 7
 226.996 441 116 353.029 116 202 c 3
 116 65.8682 225.98 -21 329 -21 c 3
 411.72 -21 461.252 -1.45801 509 36 c 9
 533 6 l 17
 482.153 -43.1074 408.758 -60 326 -60 c 3
 184.968 -60 40 41 40 195 c 3
 40 367 170.956 480 352 480 c 7
 485.034 480 617 388.045 617 212 c 3
 617 123.994 523.093 80 437 80 c 3
EndSplineSet
EndChar

StartChar: dollar
Encoding: 36 36 97
Width: 526
VWidth: 0
Flags: W
HStem: -10 36<196.489 333.801> 624 36<206.771 352.726>
VStem: 50 33<143.714 177.869> 68 83<442.154 560.599> 393 83<79.8927 214.179> 424 33<490.131 536.45>
LayerCount: 2
Back
Fore
SplineSet
270 -70 m 29xc0
 225 -70 l 29
 265 710 l 25
 310 710 l 25
 270 -70 l 29xc0
EndSplineSet
Refer: 49 83 N 1 0 0 1 0 0 2
EndChar

StartChar: grave
Encoding: 96 96 98
Width: 500
VWidth: 0
Flags: W
HStem: 431 155
VStem: 140 230
LayerCount: 2
Back
Fore
SplineSet
145 550 m 1
 230 586 l 1
 230 551 342 472 370 456 c 9
 340 431 l 17
 276 461 194 480 140 535 c 1
 145 550 l 1
EndSplineSet
EndChar

StartChar: asciicircum
Encoding: 94 94 99
Width: 500
VWidth: 0
Flags: W
VStem: 220 60<558.408 596>
LayerCount: 2
Back
Fore
SplineSet
216 545 m 1
 270 490 316 471 380 441 c 9
 410 466 l 21
 382 482 280 561 280 596 c 5
 220 596 l 5
 220 561 118 482 90 466 c 13
 120 441 l 17
 184 471 230 490 284 545 c 1
 216 545 l 1
EndSplineSet
EndChar

StartChar: cent
Encoding: 162 162 145
Width: 443
VWidth: 0
Flags: W
HStem: -10 39<210.36 340.138> 391 39<191.174 301.325>
VStem: 35 97<119.979 307.25> 220 65<-110 530>
LayerCount: 2
Back
Fore
SplineSet
285 -110 m 29
 220 -110 l 29
 220 530 l 29
 285 530 l 29
 285 -110 l 29
EndSplineSet
Refer: 21 99 N 1 0 0 1 0 0 2
EndChar

StartChar: brokenbar
Encoding: 166 166 146
Width: 185
VWidth: 0
Flags: W
HStem: 0 21G<60 125> 630 20G<60 125>
VStem: 60 65<0 280 370 650>
LayerCount: 2
Back
Fore
SplineSet
125 370 m 25
 60 370 l 25
 60 650 l 25
 125 650 l 25
 125 370 l 25
125 0 m 29
 60 0 l 29
 60 280 l 25
 125 280 l 25
 125 0 l 29
EndSplineSet
EndChar

StartChar: periodcentered
Encoding: 183 183 149
Width: 260
VWidth: 0
Flags: W
HStem: 157 92<83.5156 166.048>
VStem: 80 90<160.217 245.503>
LayerCount: 2
Back
Fore
SplineSet
125 249 m 31
 150 249 170 242 170 203 c 7
 170 160 150 157 125 157 c 31
 100 157 80 162 80 203 c 7
 80 244.012 100 249 125 249 c 31
EndSplineSet
EndChar

StartChar: cedilla
Encoding: 184 184 150
Width: 260
VWidth: 0
Flags: W
HStem: -195 15<72.6667 86.6526> -46 56<99 131.598>
VStem: 99 61<-11.7778 10> 150 60<-125.01 -65.5332>
LayerCount: 2
Back
Fore
SplineSet
150 -95 m 3xd0
 150 -69.974609375 98.7734375 -46.0625 81 -46 c 9
 99 10 l 25
 160 10 l 1xe0
 150 -30 l 1
 169 -30 210 -59 210 -85 c 3
 210 -127 111 -189 75 -195 c 1
 70 -180 l 1
 101 -171 150 -132.013671875 150 -95 c 3xd0
EndSplineSet
EndChar

StartChar: asciitilde
Encoding: 126 126 153
Width: 500
VWidth: 0
Flags: W
HStem: 170 65<266.225 366.558> 225 65<130.431 229.643>
LayerCount: 2
Back
Fore
SplineSet
80 170 m 9x80
 60 190 l 17
 82 226 129 290 195 290 c 27x40
 248 290 267 235 320 235 c 31
 367 235 394 264 420 300 c 9
 440 280 l 17
 408 222 366 170 295 170 c 27x80
 245 170 230 225 180 225 c 27x40
 135 225 102 206 80 170 c 9x80
EndSplineSet
EndChar

StartChar: macron
Encoding: 175 175 158
Width: 500
VWidth: 0
Flags: W
HStem: 490 60<100 400>
VStem: 100 300<490 550>
LayerCount: 2
Back
Fore
SplineSet
400 490 m 29
 100 490 l 29
 100 550 l 29
 400 550 l 29
 400 490 l 29
EndSplineSet
EndChar

StartChar: plusminus
Encoding: 177 177 164
Width: 450
VWidth: 0
Flags: W
HStem: 0 65<50 400> 220 65<60 395>
VStem: 200 60<90 410>
LayerCount: 2
Back
Fore
SplineSet
400 0 m 29
 50 0 l 29
 50 65 l 29
 400 65 l 29
 400 0 l 29
EndSplineSet
Refer: 73 43 N 1 0 0 1 0 30 2
EndChar

StartChar: logicalnot
Encoding: 172 172 165
Width: 450
VWidth: 0
Flags: W
HStem: 240 65<60 330>
VStem: 330 60<120 240>
LayerCount: 2
Back
Fore
SplineSet
330 240 m 1
 50 240 l 9
 60 305 l 25
 390 305 l 29
 390 120 l 21
 330 120 l 1
 330 240 l 1
EndSplineSet
EndChar

StartChar: divide
Encoding: 247 247 166
Width: 450
VWidth: 0
Flags: W
HStem: 27 92<183.516 266.048> 180 65<50 400> 307 92<183.516 266.048>
VStem: 180 90<30.217 115.503 310.217 395.503>
LayerCount: 2
Back
Fore
SplineSet
400 180 m 25
 50 180 l 25
 50 245 l 25
 400 245 l 25
 400 180 l 25
EndSplineSet
Refer: 149 183 S 1 0 0 1 100 -130 2
Refer: 149 183 N 1 0 0 1 100 150 2
EndChar

StartChar: multiply
Encoding: 215 215 167
Width: 415
VWidth: 0
Flags: W
HStem: 50 320
VStem: 50 315
LayerCount: 2
Back
Fore
SplineSet
95.1104 50 m 1
 50 95 l 1
 320 370 l 1
 365 324 l 1
 95.1104 50 l 1
95.1104 370 m 5
 365 96 l 5
 320 50 l 5
 50 325 l 5
 95.1104 370 l 5
EndSplineSet
EndChar

StartChar: ampersand
Encoding: 38 38 169
Width: 730
VWidth: 0
Flags: W
HStem: -10 39<199.798 337.106> 0 39<605.929 680.837> 383 37<515 585 615 681> 630 30<239.954 319.126>
VStem: 25 97<115.309 267.628> 145 70<496.532 602.473> 355 60<490.751 603.985> 585 30<326.513 383>
LayerCount: 2
Back
Fore
SplineSet
225 380 m 1xbf
 197 365 122 317.041992188 122 210 c 3
 122 100.885742188 195 29 255 29 c 3
 336.005859375 29 387 75 434 125 c 1
 397 174 292 304 225 380 c 1xbf
215 550 m 7
 215 513.986328125 253.212890625 472.671875 280 450 c 1
 320 471.908568391 355 491 355 550 c 7
 355 592.01171875 318.012695312 630 280 630 c 7
 227.53125 630 215 579 215 550 c 7
280 660 m 7
 378.08203125 660 415 603.038085938 415 550 c 7
 415 477.04296875 328 437 300 425 c 1
 374 335 464 224 490 186 c 1
 529 227 585 340 585 383 c 9
 515 383 l 25
 515 420 l 25
 681 420 l 25
 681 383 l 25
 615 383 l 17
 615 315 563 210 516 155 c 9
 516 155 596 39 648 39 c 3
 676 39 710 65 710 65 c 25
 710 38 l 25
 710 38 661 0 621 0 c 3x7f
 540.775315519 0 501 45 459 90 c 1
 401 24 336.288085938 -10 225 -10 c 3
 113 -10 25 63.99609375 25 180 c 3
 25 317.483384137 168 397.415834672 204 415 c 9
 204 415 145 482.96484375 145 540 c 7
 145 607 213 660 280 660 c 7
EndSplineSet
EndChar

StartChar: braceleft
Encoding: 123 123 170
Width: 325
VWidth: 0
Flags: W
HStem: -140 24<258.697 295> 686 24<258.94 295>
VStem: 60 235
LayerCount: 2
Back
Fore
SplineSet
295 -140 m 17
 15 -140 214 241 60 287 c 1
 212 349 17 710 295 710 c 9
 295 686 l 17
 120 686 247 301 154 287 c 1
 246 265 132 -116 295 -116 c 9
 295 -140 l 17
EndSplineSet
EndChar

StartChar: yen
Encoding: 165 165 172
Width: 622
VWidth: 0
Flags: W
HStem: -4 28<362.9 426.384> 171 45<125 495> 274 45<125 495> 626 24<5.38745 55.4822 414.387 473.369>
VStem: 263 92<32.9546 319>
LayerCount: 2
Back
Fore
SplineSet
495 171 m 29
 125 171 l 29
 125 216 l 29
 495 216 l 29
 495 171 l 29
495 274 m 25
 125 274 l 25
 125 319 l 25
 495 319 l 25
 495 274 l 25
EndSplineSet
Refer: 56 89 N 1 0 0 1 0 0 2
EndChar

StartChar: Oslash
Encoding: 216 216 173
Width: 729
VWidth: 0
Flags: W
HStem: -10 42<290.025 470.628> 619 41<265.727 440.764> 680 20G<538.267 593.333>
VStem: 40 101<202.589 449.026> 589 100<186.044 448.246>
LayerCount: 2
Back
Fore
SplineSet
175 -80 m 29
 110 -50 l 29
 550 700 l 29
 615 670 l 29
 175 -80 l 29
EndSplineSet
Refer: 32 79 N 1 0 0 1 0 0 2
EndChar

StartChar: oslash
Encoding: 248 248 174
Width: 485
VWidth: 0
Flags: W
HStem: -10 39<194.57 308.415> 391 39<176.176 292.907> 470 20G<368.148 410>
VStem: 25 97<113.561 303.635> 363 97<106.322 307.432>
LayerCount: 2
Back
Fore
SplineSet
105 -80 m 25
 60 -50 l 25
 380 490 l 29
 425 460 l 29
 105 -80 l 25
EndSplineSet
Refer: 12 111 N 1 0 0 1 0 0 2
EndChar

StartChar: thorn
Encoding: 254 254 175
Width: 549
VWidth: 0
Flags: W
HStem: -274 30<198.725 255.182> -10 39<231.937 362.869> 391 39<238.709 347.386> 619 28<47 93.5454> 686 20G<179.5 195.219>
VStem: 105 86<-234.586 46 57.5957 356.609 364 612.543> 417 97<106.322 307.432>
LayerCount: 2
Back
Fore
SplineSet
105 570 m 6
 105 610 82 619 47 619 c 13
 47 647 l 21
 78 647 162 677 197 706 c 5
 193.4375 689.078125 191 669 191 633 c 5
 191 629 191 368.922013793 191 364 c 1
 220 403 257 430 300 430 c 3
 433 430 514 332 514 214 c 3
 514 67 423 -10 294 -10 c 3
 256 -10 219 12 191 46 c 1
 191 -218 l 2
 191 -238 246 -238 252 -244 c 0
 255 -247 256 -248 256 -274 c 1
 232 -271 185 -270 144 -270 c 0
 103 -270 70 -271 40 -274 c 1
 40 -261 42 -255 46 -251 c 0
 59 -238 105 -242 105 -218 c 2
 105 570 l 6
191 325 m 1
 191 87 l 1
 209 51 243 29 306 29 c 3
 357 29 417 70 417 188 c 3
 417 287 382 391 287 391 c 3
 245 391 212 365 191 325 c 1
EndSplineSet
EndChar

StartChar: Thorn
Encoding: 222 222 176
Width: 577
VWidth: 0
Flags: W
HStem: -4 28<207.249 281.182> 138 48<198 360.468> 473 47<198.271 360.907> 626 24<210.258 269.318>
VStem: 105 93<33.8841 138 186 471.42 520 617.045> 442 95<253.762 399.348>
LayerCount: 2
Back
Fore
SplineSet
198 520 m 29
 315 520 l 6
 463 520 537 412 537 349 c 7
 537 224 476 138 277 138 c 6
 198 138 l 5
 198 47 l 2
 198 29 273 29 278 24 c 0
 281 21 282 19 282 -4 c 1
 260 -1 183 0 146 0 c 0
 109 0 72 -1 45 -4 c 1
 45 8 47 14 51 18 c 0
 63 30 105 26 105 47 c 2
 105 603 l 2
 105 624 53 620 41 632 c 0
 37 636 35 638 35 650 c 1
 270 650 l 1
 270 626 268 628 266 626 c 0
 261 621 198 621 198 603 c 2
 198 520 l 29
268 473 m 6
 229 473 l 6
 222 473 198 467 198 448 c 6
 198 186 l 5
 254 186 l 6
 354 186 442 230 442 325 c 7
 442 389 396 473 268 473 c 6
EndSplineSet
EndChar

StartChar: germandbls
Encoding: 223 223 177
Width: 541
VWidth: 0
Flags: W
HStem: -10 36<262.664 353.716> 666 39<219.571 313.842>
VStem: 91 85<32.8653 580.163> 227 60<26.1824 53.9531> 352 89<444.349 618.313> 422 89<98.92 254.842>
LayerCount: 2
Back
Fore
SplineSet
176 0 m 17xf8
 176 0 56 -1 26 -4 c 1
 26 9 28 16 32 20 c 0
 45 33 91 28 91 52 c 2
 91 455 l 2
 91 639 195 705 268 705 c 3
 371 705 441 626.705078125 441 535 c 3xf8
 441 446.977539062 412 409 335 369 c 1
 438 369 511 264.064453125 511 194 c 3
 511 65.99609375 412 -10 292 -10 c 3
 235 -10 227 22 227 39 c 3
 227 60 269 78 287 78 c 1
 287 59 291 26 300 26 c 3
 368 26 422 100 422 179 c 3xf4
 422 292.017578125 310.932617188 337.591796875 262 332 c 2
 227 328 l 1
 227 358 l 1
 255 373 l 2
 328.926757812 412.603515625 352 474 352 526 c 3
 352 570.045898438 339.6953125 666 264 666 c 7
 207 666 176 607 176 455 c 2
 176 0 l 17xf8
EndSplineSet
EndChar

StartChar: AE
Encoding: 198 198 178
Width: 951
VWidth: 0
Flags: W
HStem: -4 28<146.168 222.384> 0 47<528.16 825.366> 236 48<226 489> 313 48<528 729.718> 408 20G<767 780.436> 603 47<528.271 809.887>
VStem: 435 93<48.9409 236 284 313 361 582.218> 435 54<236 284> 742 16<239 271.421>
LayerCount: 2
Back
Fore
SplineSet
435 583 m 9x7d80
 139 47 l 2x7d80
 130.596679688 31.21484375 215 29 220 24 c 0
 222 22 223 20 223 -4 c 1xbd80
 202 0 140 0 103 0 c 3x7d80
 66 0 32 0 5 -4 c 1xbd80
 5 8 7 14 11 18 c 0
 23 30 66 27 74 47 c 10
 383 608 l 18
 395.8671875 632.551757812 409 650 457 650 c 2
 878 650 l 1
 853 522 l 1
 835 528 l 1
 835 528 830 603 754 603 c 2
 559 603 l 2
 552 603 528 597 528 578 c 2
 528 361 l 1
 708 361 l 2
 752 361 739 391 767 422 c 1
 783 428 l 1
 758 233 l 1
 742 239 l 1
 729 263 740 313 706 313 c 2
 528 313 l 1
 528 71 l 2
 528 53 553 47 560 47 c 2
 766 47 l 2
 850 47 884 156 884 156 c 1
 901 150 l 1
 879 0 l 1
 482 0 l 2x7e80
 444 0 402 0 375 -4 c 1xbe80
 375 8 377 14 381 18 c 0
 393 30 435 26 435 47 c 2
 435 583 l 9x7d80
226 284 m 1
 489 284 l 1
 489 236 l 1
 226 236 l 1
 226 284 l 1
EndSplineSet
EndChar

StartChar: ae
Encoding: 230 230 179
Width: 679
VWidth: 0
Flags: W
HStem: -10 56<137.732 255.336> -10 39<436.881 566.133> 222 43<385 523.462> 235 30<502.538 578> 381 49<159.964 270.468> 391 39<432.513 538.455>
VStem: 40 84<59.5496 154.736> 53 91<280.38 360.621> 280 105<265 338.092> 280 97<101.556 221> 578 71<265 333.155>
LayerCount: 2
Back
Fore
SplineSet
124 110 m 3x8260
 124 63 154 46 190 46 c 3
 229 46 259 63 280 84 c 1
 280 221 l 1
 231 187 124 187 124 110 c 3x8260
484 430 m 3x05a0
 561 430 649 364 649 235 c 1x15a0
 377 222 l 5
 377 121 414 29 490 29 c 3
 541 29 589 53 620 93 c 1
 640 81 l 1
 607 20 556 -10 478 -10 c 3x6160
 405 -10 353 14 321 55 c 1
 282 21 224 -10 176 -10 c 3
 102 -10 40 24 40 98 c 3
 40 203 196 211 280 260 c 1x8260
 280 315 l 2
 280 362 260 381 230 381 c 3
 159 381 153 353 144 326 c 0
 135 301 130 274 105 274 c 3
 81 274 53 283 53 307 c 3
 53 332 63 352 79 365 c 0
 96 379 156 430 242 430 c 3x89a0
 301 430 334 418 351 383 c 1
 390 417 439 430 484 430 c 3x05a0
578 265 m 1
 578 331 547 391 486 391 c 3
 447 391 397 364 385 265 c 1x24a0
 578 265 l 1
EndSplineSet
EndChar

StartChar: ordmasculine
Encoding: 186 186 180
Width: 275
VWidth: 0
Flags: W
HStem: 420 29<109.33 174.834> 631 29<102.15 176.217>
VStem: 20 57<475.225 606.879> 198 57<469.436 617.3>
LayerCount: 2
Back
Fore
SplineSet
138 631 m 3
 98 631 77 593.012498047 77 553 c 3
 77 497.990909842 103 449 142 449 c 3
 173 449 198 475 198 543 c 3
 198 605.032226562 178 631 138 631 c 3
20 542 m 3
 20 599 71.4931640625 660 145 660 c 3
 215.0285656 660 255 607.08483776 255 554 c 3
 255 470.513671875 212 420 134 420 c 3
 44 420 20 494.93359375 20 542 c 3
EndSplineSet
EndChar

StartChar: ordfeminine
Encoding: 170 170 181
Width: 257
VWidth: 0
Flags: W
HStem: 420 35<60.7058 131.955 176.5 222.717> 629 31<74.0878 137.548>
VStem: 10 49<455.834 518.415> 16 54<578.968 625.669> 141 51<460.212 547 562.542 627.328>
LayerCount: 2
Back
Fore
SplineSet
59 483 m 3xe8
 59 458 75 455 94 455 c 27
 115 455 130 464 141 475 c 13
 141 547 l 17
 115 529 59 524 59 483 c 3xe8
192 584 m 10
 192 480 l 18
 192 473 193 460 203 460 c 11
 215 460 222 464 228 476 c 9
 237 461 l 17
 225 435 211 420 185 420 c 27
 168 420 145 429 145 446 c 1
 124 431 100 420 86 420 c 3
 47 420 10 438 10 477 c 3xe8
 10 532 97 547 141 573 c 9
 141 600 l 26
 141 618 131 629 115 629 c 3
 78 629 75 619 70 605 c 0
 65 592 62 578 49 578 c 27
 36 578 16 582 16 595 c 27xd8
 16 608 22 619 30 626 c 0
 39 633 76 660 121 660 c 3
 172 660 192 642 192 584 c 10
EndSplineSet
EndChar

StartChar: uni00B9
Encoding: 185 185 182
Width: 170
VWidth: 0
Flags: W
HStem: 428 17<20.335 50.0692> 609 15<20 44>
VStem: 65 42<453.717 606.999>
LayerCount: 2
Back
Fore
SplineSet
20 609 m 1
 20 624 l 1
 36 624 76 633 113 665 c 1
 110 648 107 620 107 581 c 2
 107 472 l 18
 107 454 141 452 146 447 c 0
 149 444 150 437 150 428 c 1
 141 430 122 430 85 430 c 3
 48 430 30 430 20 428 c 1
 20 437 20 443 24 445 c 0
 32 449 65 451 65 472 c 10
 65 558 l 18
 65 584 62.119140625 605.188476562 44 607 c 10
 20 609 l 1
EndSplineSet
EndChar

StartChar: uni00B2
Encoding: 178 178 183
Width: 210
VWidth: 0
Flags: W
HStem: 430 37<83 174.802> 634 26<58.2367 106.603>
VStem: 114 50<540.801 632.39> 175 15<475.459 485>
LayerCount: 2
Back
Fore
SplineSet
164 600 m 3
 164 570 135 516 83 467 c 9
 133 467 l 2
 152 467 171 472 175 485 c 1
 178 485 185 486 190 484 c 1
 181 437 l 1
 170 432 147 430 118 430 c 2
 10 430 l 17
 84 511 114 552 114 596 c 3
 114 614.02734375 104.022460938 634 82 634 c 3
 66.8671875 634 55 624 45 595 c 1
 42 595 25 595 20 597 c 1
 29 637 l 1
 40 646 54 660 92 660 c 3
 126 660 164 636.125 164 600 c 3
EndSplineSet
EndChar

StartChar: uni00B3
Encoding: 179 179 184
Width: 183
VWidth: 0
Flags: W
HStem: 420 29<32.6475 106.835> 528 26<64 73> 630 30<38.1181 103.546>
VStem: 10 20<456.385 468.737 606.783 618.188> 107 44<561.554 628.589> 115 48<452.75 524.781>
LayerCount: 2
Back
Fore
SplineSet
151 610 m 7xf8
 151 582 129.272727273 554 109 550 c 5
 135 547 163 532 163 498 c 7
 163 444.990234375 127 420 69 420 c 7
 58 420 22 426 16 429 c 5
 10 468 l 5
 14 469 27 469 30 469 c 5
 35 451 61 449 72 449 c 7
 98 449 115 459 115 493 c 7xf4
 115 528 90.6884765625 525.57421875 75 527 c 6
 64 528 l 5
 64 554 l 5
 73 556 l 6
 98.623046875 561.694335938 107 585 107 602 c 7
 107 622 92 630 73 630 c 7
 59 630 37 626 35 606 c 5
 33 606 19 606 16 607 c 5
 20 643 l 5
 25 647 46 660 80 660 c 7
 112 660 151 641 151 610 c 7xf8
EndSplineSet
EndChar

StartChar: sterling
Encoding: 163 163 185
Width: 556
VWidth: 0
Flags: W
HStem: -11 67<250.52 420.581> 30 69<171 223.6> 270 50<47.3193 365.52> 602 59<281.193 394.677>
LayerCount: 2
Back
Fore
SplineSet
236 270 m 2x30
 90 270 l 2
 58 270 47 267 29 264 c 1
 29 286 35 311 59 320 c 9
 391 320 l 17
 365 264 l 1
 359 265 271 270 236 270 c 2x30
171 99 m 17x70
 216 99 277.479492188 56 347 56 c 3
 430.053710938 56 475 94 488 127 c 9
 521 117 l 17
 505 80 451.063476562 -11 325 -11 c 3xb0
 265.796875 -11 170 30 129 30 c 3
 88 30 45 -7 15 -10 c 1
 15 3 17 10 21 14 c 0
 34 27 78.455078125 46 90 112 c 2
 150 455 l 2
 177.513671875 639.796875 314 661 387 661 c 3
 444 661 499 606 499 589 c 3
 499 568 445 543 427 543 c 1
 391 587 384 602 323 602 c 3
 283 602 254.291182585 562.307203131 235 455 c 2
 171 99 l 17x70
EndSplineSet
EndChar

StartChar: paragraph
Encoding: 182 182 186
Width: 527
VWidth: 0
Flags: W
HStem: -4 28<190.818 255.977> 634 16G<146 326 473.5 487>
VStem: 25 301<370.21 553.706> 264 62<33.1309 268> 365 62<29.4214 620.579>
LayerCount: 2
Back
Fore
SplineSet
365 0 m 1xc8
 365 650 l 17
 402 650 460 650 487 654 c 1
 487 642 485 636 481 632 c 0
 469 620 427 624 427 603 c 2
 427 47 l 2
 427 26 469 30 481 18 c 0
 485 14 487 8 487 -4 c 1
 460 -1 402 0 365 0 c 1xc8
326 650 m 17xd8
 326 0 l 1
 289 0 212 -1 190 -4 c 5
 190 19 191 21 194 24 c 4
 199 29 264 29 264 47 c 2
 264 268 l 1xd8
 245 268 l 2
 88 268 25 354 25 479 c 3xe8
 25 542 85 650 207 650 c 2
 326 650 l 17xd8
EndSplineSet
EndChar

StartChar: section
Encoding: 167 167 187
Width: 450
VWidth: 0
Flags: W
HStem: -200 37<186.29 309.196> 583 37<139.203 249.575>
VStem: 52 53<235.456 344.539 455.456 546.764> 357 53<-115.722 -24.7044 100.073 195.296>
LayerCount: 2
Back
Fore
SplineSet
328 75 m 1
 349 101 357 130 357 149 c 3
 357 213 238 264 211 282 c 0
 192 295 52 367 52 471 c 3
 52 564 133.994318365 620 222 620 c 3
 321 620 384 565 384 548 c 3
 384 527 330 502 312 502 c 1
 276 546 249 583 188 583 c 3
 149.881762895 583 105 554 105 506 c 3
 105 441 213 387 247 369 c 0
 281 351 410 289 410 184 c 3
 410 136 390 90 354 54 c 1
 328 75 l 1
129 361 m 5
 113 338 105 310 105 286 c 7
 105 221 213 167 247 149 c 4
 281 131 410 69 410 -36 c 7
 410 -135 329.038085938 -200 212 -200 c 7
 131 -200 40 -135 40 -118 c 4
 40 -97 94 -72 112 -72 c 5
 148 -116 185.005859375 -162.17578125 246 -163 c 4
 320 -164 357 -109 357 -71 c 7
 357 -7 238 44 211 62 c 4
 192 75 52 147 52 251 c 7
 52 300 68 349 102 385 c 5
 129 361 l 5
EndSplineSet
EndChar

StartChar: mu
Encoding: 181 181 188
Width: 576
VWidth: 0
Flags: W
HStem: -10 59<171.155 290.273> -10 39<420.461 494.122> 400 20G<60 146 322 408>
VStem: 40 96<-233.078 11.6615> 60 86<75.1612 420> 60 54.3069<-174.481 17.3513> 322 86<72.4861 420> 516 20<65.2189 85.2>
LayerCount: 2
Back
Fore
SplineSet
322 420 m 5xab
 408 420 l 5
 408 173 l 6
 408 72 408 29 456 29 c 7
 489 29 506 54 516 93 c 5
 536 81 l 5
 526 32 490 -10 442 -10 c 7x6b
 400.761768063 -10 364.208361948 7.95849898309 342.584914509 50.2177220493 c 5
 299.909281983 11.2215194311 260.488075465 -10 198 -10 c 7
 164.634002487 -10 136.385886649 -0.0652885153458 114.306862501 17.351311081 c 5xa7
 116.965308382 -105.022712901 136 -163.815621558 136 -188 c 7
 136 -209.283203125 118 -244 87 -244 c 7
 55 -244 40 -202.788085938 40 -188 c 7xb3
 40 -172 60 -97 60 45 c 6xa7
 60 420 l 5
 146 420 l 5
 146 133 l 6
 146 99 170 49 224 49 c 7
 260 49 285 58 322 87 c 5
 322 420 l 5xab
EndSplineSet
EndChar

StartChar: fraction
Encoding: 8260 8260 192
Width: 495
VWidth: 0
Flags: W
LayerCount: 2
Back
Fore
SplineSet
65 20 m 25
 30 50 l 25
 430 630 l 25
 465 600 l 25
 65 20 l 25
EndSplineSet
EndChar

StartChar: uni2074
Encoding: 8308 8308 196
Width: 221
VWidth: 0
Flags: W
HStem: 431 21G<114 155> 470 49<154.064 194> 470 31<66 116 153 187.382> 640 20G<120 154.5>
VStem: 116 37<431.329 470 501 585>
LayerCount: 2
Back
Fore
SplineSet
116 585 m 1xb8
 89 552 88 534 66 501 c 1
 116 501 l 1
 116 585 l 1xb8
153 634 m 2
 153 501 l 1xb8
 176 502 180 507 190 519 c 1xd8
 192 519 198 520 201 518 c 1
 194 475 l 1
 187 472 164 470 151 470 c 1
 151 446 153 438 155 431 c 1
 114 431 l 1
 116 437 118 451 118 470 c 1
 10 470 l 1
 50 533 76 586 120 645 c 1
 155 660 l 1
 154 651 153 647 153 634 c 2
EndSplineSet
EndChar

StartChar: copyright
Encoding: 169 169 198
Width: 822
Flags: W
HStem: -40 41<294.728 529.47> 103 27<367.997 521.47> 420 21G<538 551.902> 506 26<355.523 487.375> 634 41<295.342 524.173>
VStem: 50 53<193.473 442.725> 207 71<215.43 412.744> 719 53<195.178 444.53>
LayerCount: 2
Back
Fore
SplineSet
522 471 m 1
 487 504 446 506 406 506 c 3
 326 506 278 431 278 326 c 3
 278 223 322 130 429 130 c 3
 484 130 528 140 563 164 c 9
 571 141 l 17
 531 111 479 103 421 103 c 3
 289 103 207 186 207 310 c 3
 207 444 297 532 413 532 c 3
 477 532 521 518 564 502 c 1
 548 420 l 1
 538 424 l 1
 522 471 l 1
411 675 m 3
 623 675 772 540 772 321 c 3
 772 114 633 -40 411 -40 c 3
 187 -40 50 115 50 321 c 3
 50 531 208 675 411 675 c 3
411 1 m 3
 639 1 719 177 719 321 c 3
 719 556 537 634 411 634 c 3
 238 634 103 517 103 321 c 3
 103 78 281 1 411 1 c 3
EndSplineSet
EndChar

StartChar: registered
Encoding: 174 174 199
Width: 428
Flags: W
HStem: 340 21<154.824 274.315> 421 6<193.379 198.885 304.969 317> 512 5<199 221> 515 13<174 189> 619 15<174.224 225.561> 684 21<154.982 271.626>
VStem: 30 27<452.649 592.228> 144 30<430.544 515 528 619> 254 32<541.988 603.79> 371 27<454.287 591.37>
LayerCount: 2
Back
Fore
SplineSet
317 421 m 1xefc0
 265 421 l 18
 256 421 221 512 199 512 c 9
 240 517 l 17
 285 438 300 427 319 427 c 1
 317 421 l 1xefc0
189 513 m 2
 174 515 l 1xdfc0
 174 436 l 2
 174 430 195 431 197 429 c 0
 198 428 199 427 199 419 c 1
 192 420 169 421 157 421 c 3
 145 421 133 420 124 419 c 1
 124 423 125 426 126 427 c 0
 130 431 144 429 144 436 c 2
 144 619 l 2
 144 626 130 624 126 628 c 0
 125 629 124 631 124 635 c 1
 133 634 147 634 159 634 c 2
 206 634 l 2
 255 634 286 602 286 581 c 3
 286 552 267 503 189 513 c 2
191 619 m 2
 185 619 l 2
 183 619 174 616 174 610 c 2
 174 528 l 1
 189 528 l 2
 222 528 254 541 254 573 c 3
 254 594 233 619 191 619 c 2
214 705 m 7
 322 705 398 636 398 524 c 7
 398 418 327 340 214 340 c 7
 100 340 30 419 30 524 c 7
 30 631 110 705 214 705 c 7
214 361 m 7
 330 361 371 451 371 524 c 7
 371 644 278 684 214 684 c 7
 126 684 57 624 57 524 c 7
 57 400 148 361 214 361 c 7
EndSplineSet
EndChar

StartChar: currency
Encoding: 164 164 200
Width: 512
Flags: W
HStem: -10 21G<45 85 426.78 467> 20 51<187.294 327.939> 334 51<186.812 325.602> 410 20G<45.5556 85 426.217 466.571>
VStem: 72 57<120.594 278.469> 383 57<119.056 276.081>
LayerCount: 2
Back
Fore
SplineSet
355 81 m 25
 390 117 l 25
 482 25 l 25
 447 -10 l 25
 355 81 l 25
121 117 m 25
 157 82 l 25
 65 -10 l 25
 30 25 l 25
 121 117 l 25
446 430 m 25
 482 395 l 25
 390 303 l 25
 355 338 l 25
 446 430 l 25
30 394 m 25
 65 430 l 25
 157 338 l 25
 122 303 l 25
 30 394 l 25
256 385 m 3
 364 385 440 316 440 204 c 3
 440 98 369 20 256 20 c 3
 142 20 72 99 72 204 c 3
 72 311 152 385 256 385 c 3
256 71 m 3
 322.0078125 71 383 119.994140625 383 204 c 3
 383 288.005859375 316 334 256 334 c 3
 199.963867188 334 129 294.049804688 129 204 c 3
 129 125.942382812 190 71 256 71 c 3
EndSplineSet
EndChar

StartChar: eth
Encoding: 240 240 201
Width: 466
VWidth: 0
Flags: W
HStem: -10 39<172.492 277.653> 391 39<178.177 298.27> 685 20G<98 186.75>
VStem: 25 89<104.861 307.869> 342 89<118.805 366.798>
LayerCount: 2
Back
Fore
SplineSet
360 640 m 25
 120 520 l 25
 105 555 l 25
 345 675 l 25
 360 640 l 25
340 336 m 1
 328 356 287.008620049 391 229 391 c 3
 156.47265625 391 114 291.1015625 114 192 c 3
 114 63 185 29 229 29 c 3
 297 29 342 125.989257812 342 231 c 3
 342 472.1171875 219.5 612 98 695 c 9
 136 705 l 17
 237.5 646 431 462.000976562 431 236 c 3
 431 67.4052734375 323 -10 242 -10 c 3
 112.984375 -10 25 68.99609375 25 208 c 3
 25 331.171875 116.495117188 430 215 430 c 3
 302.022985469 430 330 388 336 367 c 1
 340 336 l 1
EndSplineSet
EndChar
